<?xml version="1.0" encoding="UTF-8" standalone="no"?>
<svg
   xmlns:dc="http://purl.org/dc/elements/1.1/"
   xmlns:cc="http://creativecommons.org/ns#"
   xmlns:rdf="http://www.w3.org/1999/02/22-rdf-syntax-ns#"
   xmlns:svg="http://www.w3.org/2000/svg"
   xmlns="http://www.w3.org/2000/svg"
   xmlns:sodipodi="http://sodipodi.sourceforge.net/DTD/sodipodi-0.dtd"
   xmlns:inkscape="http://www.inkscape.org/namespaces/inkscape"
   height="1024"
   width="1024"
   id="svg4136"
   version="1.1"
   inkscape:version="0.91 r13725"
   sodipodi:docname="github-mark-white.svg">
  <metadata
     id="metadata4144">
    <rdf:RDF>
      <cc:Work
         rdf:about="">
        <dc:format>image/svg+xml</dc:format>
        <dc:type
           rdf:resource="http://purl.org/dc/dcmitype/StillImage" />
        <dc:title></dc:title>
      </cc:Work>
    </rdf:RDF>
  </metadata>
  <defs
     id="defs4142" />
  <sodipodi:namedview
     pagecolor="#ffffff"
     bordercolor="#666666"
     borderopacity="1"
     objecttolerance="10"
     gridtolerance="10"
     guidetolerance="10"
     inkscape:pageopacity="0"
     inkscape:pageshadow="2"
     inkscape:window-width="1600"
     inkscape:window-height="838"
     id="namedview4140"
     showgrid="false"
     inkscape:zoom="0.46196722"
     inkscape:cx="898.74935"
     inkscape:cy="400.34551"
     inkscape:window-x="-8"
     inkscape:window-y="-8"
     inkscape:window-maximized="1"
     inkscape:current-layer="layer1" />
  <g
     inkscape:groupmode="layer"
     id="layer1"
     inkscape:label="Mark">
    <path
       inkscape:connector-curvature="0"
       d="m 512.10931,11.764823 c -282.74805,0 -512.00004868,229.251987 -512.00004868,511.999997 0,226.251 146.68799868,418.126 350.15499868,485.81298 25.593,4.686 34.937,-11.12498 34.937,-24.62598 0,-12.188 -0.469,-52.562 -0.718,-95.314 -128.708,23.46 -161.707,-31.541 -172.469,-60.373 -5.525,-14.809 -30.407,-60.249 -52.398,-72.263 -17.988,-9.828 -43.26,-33.237 -0.917,-33.735 40.434,-0.476 69.348,37.308 78.471,52.75 45.938,77.749 119.876,55.627 148.999,42.5 4.654,-32.999 17.90205,-55.627 32.50105,-68.373 -113.65705,-12.939 -233.22005,-56.875 -233.22005,-253.063 0,-55.94 19.968,-101.561 52.658,-137.40401 -5.22,-12.999 -22.844,-65.095 5.063,-135.563 0,0 42.937,-13.749 140.811,52.50101 40.81105,-11.40601 84.59405,-17.03101 128.12405,-17.22001 43.499,0.188 87.314,5.874 128.188,17.28001 97.689,-66.31101 140.686,-52.50101 140.686,-52.50101 28,70.532 10.375,122.564 5.124,135.499 32.811,35.84401 52.626,81.46801 52.626,137.40401 0,196.686 -119.751,240 -233.813,252.686 18.439,15.876 34.748,47.001 34.748,94.748 0,68.437 -0.686,123.627 -0.686,140.501 0,13.625 9.312,29.56098 35.25,24.56198 203.316,-67.81098 349.87999,-259.68298 349.87999,-485.80898 0,-282.74801 -229.25199,-511.999997 -511.99999,-511.999997 z"
       id="path4138"
       style="fill:#ffffff;fill-opacity:1" />
  </g>
</svg>
