<svg width="3942" height="262.374" xmlns="http://www.w3.org/2000/svg"><path d="M954.8 170.351l-36 86H866l-6-86h-2l-19.2 86h-68.4l48.4-211.6h86.8l6 99.2h1.6l40.4-99.2h200.8l-2.8 18-111.94-11.881-3.906 32.281H1148l-3.2 18-109.813-11.655-3.878 32.055H1141.2l-3.2 18-107.686-11.429-3.851 31.829H1134.4l-3.2 18-105.56-11.203-3.823 31.603H1129.6v8q0 6.8.4 10l-108.962-11.564-3.915 32.364H1133.6q4.4 11.2 11.6 18l-128.604-13.649-1.796 14.849H946l10.8-86h-2zm2045.6 0l-36 86h-52.8l-6-86h-2l-19.2 86H2816l48.4-211.6h86.8l6 99.2h1.6l40.4-99.2H3200l-2.8 18-111.94-11.881-3.906 32.281H3193.6l-3.2 18-109.813-11.655-3.878 32.055H3186.8l-3.2 18-107.686-11.429-3.851 31.829H3180l-3.2 18-105.56-11.203-3.823 31.603H3173.2l-3.2 18-103.433-10.978-3.844 31.778H3166.4l-3.2 18-101.353-10.757-1.447 11.957h-68.8l2.406-19.157-.406-.043h.411l8.389-66.8h-2zm-2848.8 81.6l22.4-66q33.6 9.2 61.4 9.2 27.8 0 45.4-2.4l3.2-20-33.2-3.2q-38-3.6-53.8-17.2-15.8-13.6-15.8-38.4 0-10.8 2.4-24 9.2-51.2 33.6-70.4 24.4-19.2 75-19.2t89.4 10l-11.18 34.4H538l-7.2 17.2-160.473-16.913-9.527 29.313q-34.8-6-55.8-6t-36.2 2l-3.2 19.6 26.8 2.8q40.8 4.4 58 19.4a50.657 50.657 0 0 1 8.347 9.4H506l-7.6 17.6-137.882-14.833a50.657 50.657 0 0 1 7.082 28.033 142.656 142.656 0 0 1-.292 7.6H489.6l-7.2 17.6-115.526-12.398a142.656 142.656 0 0 1-7.466 33.198H473.6l-7.6 17.6-108.84-11.68a142.656 142.656 0 0 1-.36.88q-6 14-12.6 23.4a60.219 60.219 0 0 1-7.396 8.6H457.2l-7.6 17.6-118.545-12.722a60.219 60.219 0 0 1-3.655 2.522q-10.2 6.6-18.6 10-8.4 3.4-21.6 5-18.4 2.8-45.6 2.8-49.6 0-90-10.4zm2450-51.6h20q10.8 0 15-2.6 4.2-2.6 5.8-12.6l25.2-140.4H2851.2l-4.4 18-113.023-12.139-5.678 32.539H2842l-4 18-110.967-11.889-5.634 32.289H2833.2l-4.4 18-108.514-11.627-5.588 32.027H2824.8l-4 18-107.047-11.388a140.027 140.027 0 0 1-7.12 31.788H2816l-4.4 18-107.455-11.431a140.027 140.027 0 0 1-18.459 32.231H2806.8l-4 18-122.035-12.952A103.85 103.85 0 0 1 2610 261.151q-41.2 0-57.6-12.2t-16.4-42.6q0-16.8 4.4-42.4l21.2-119.2h67.2l-27.2 155.6zm-1394.4 0h20q10.8 0 15-2.6 4.2-2.6 5.8-12.6l4.521-25.187-.121-.013h.123l6.888-38.378-.211-.022h.215l6.887-38.368-.302-.032h.308l6.885-38.358-.393-.042h172.4l-2.8 18-103.229-10.956-5.472 31.356H1438.8l-3.2 18-103.132-10.946-5.469 31.346H1432l-3.2 18-103.034-10.935-5.468 31.335H1425.2l-3.2 18-102.699-10.9a140.027 140.027 0 0 1-7.068 31.3H1418.4l-3.2 18-105.548-11.202a140.027 140.027 0 0 1-18.366 32.002H1411.6l-3.2 18-122.035-12.952a103.85 103.85 0 0 1-70.765 18.952q-41.2 0-57.6-12.2t-16.4-42.6q0-16.8 4.4-42.4l21.2-119.2h67.2l-27.2 155.6zm-541.2 56h-70l-.909-18.405-7.491-.795h7.452l-.652-13.2H544l-12.4 32.4h-69.2l88.8-211.6H805.6l-4.4 18L650.534 46.57l2.697 36.581H796.4l-4 18-138.939-14.886 2.601 35.286H787.6l-4.4 18-126.813-13.587 2.506 33.987H779.2l-4 18-115.889-12.329 2.413 32.729H770.4l-4.4 18-103.763-11.039 2.347 31.839H761.2l-4 18-92.008-9.765.808 10.965zm1772.8-58.8l-.141.8H2524v8q0 6.8.4 10l-87.287-9.264-5.317 30.064H2528q4.4 11.2 11.6 18l-108.943-11.562-2.257 12.762h-130l36.8-211.6h213.6l-2.8 18-140.934-14.958-6.201 35.358H2542.4l-3.2 18L2398.33 86.2l-6.2 35.351h143.47l-3.2 18-140.806-14.944-6.199 35.344H2528.8l-3.2 18-140.742-14.937-6.058 34.537h60zm-868.4-65.6l-4.958 28H1687.6l-3.2 18-119.893-12.725-.907 5.125H1504l-4.8 27.2h74l-.141.8H1680.8l-3.2 18-105.74-11.223-5.664 32.023H1674l-3.2 18-105.802-11.229-2.198 12.429h-141.2l36.8-211.6H1707.6l-2.8 18-107.66-11.426-9.972 31.826H1701.2l-3.2 18-112.723-11.964-4.877 15.564h-65.2l-4.8 27.2h60zm1998.8 74.8h-38.8l-8.8 49.6h-67.2l36.8-211.6H3592.8a49.9 49.9 0 0 1 16.834 0H3756l-2.8 18-130.491-13.849a49.9 49.9 0 0 1 27.228 34.249h99.663l-3.2 18-95.368-10.122a49.9 49.9 0 0 1-.232 8.522 138.59 138.59 0 0 1-1.519 22h93.519l-3.2 18-91.811-9.744a138.59 138.59 0 0 1-4.189 15.344 134.828 134.828 0 0 1-5.701 14.8H3736l-3.2 18-98.612-10.466a134.828 134.828 0 0 1-6.188 10.466q-8.4 12-23.8 20.4h127v8q0 6.8.4 10l-135.371-14.367a71.893 71.893 0 0 1-27.029 4.767zm-278 0h-38.8l-8.8 49.6h-67.2l36.8-211.6H3314.8a49.9 49.9 0 0 1 16.834 0H3478l-2.8 18-130.491-13.849a49.9 49.9 0 0 1 27.228 34.249h99.663l-3.2 18-95.368-10.122a49.9 49.9 0 0 1-.232 8.522 138.59 138.59 0 0 1-1.519 22h93.519l-3.2 18-91.811-9.744a138.59 138.59 0 0 1-4.189 15.344 134.828 134.828 0 0 1-5.701 14.8H3458l-3.2 18-98.612-10.466a134.828 134.828 0 0 1-6.188 10.466q-8.4 12-23.8 20.4h125l-3.2 18-131.011-13.905a71.893 71.893 0 0 1-25.789 4.305zm-1164.4-10.8h-49.6l-10.4 60.4h-76l44-250h120a58.078 58.078 0 0 1 65.198 38.4H2322l-2.8 18-97.153-10.311a58.078 58.078 0 0 1 .753 17.111 164.565 164.565 0 0 1-.377 13.6h93.177l-3.2 18-90.77-9.634a164.565 164.565 0 0 1-6.515 30.034h93.685l-3.2 18-93.226-9.894a151.587 151.587 0 0 1-15.121 30.294H2302l-3.2 18-106.576-11.311a82.97 82.97 0 0 1-24.424 19.511q-17.8 9.8-41 9.8zm1682 4.4h20q10.8 0 15-2.6 4.2-2.6 5.8-12.6l25.2-140.4h67.2l-20.8 119.2q-9.6 56-31 76.6-21.4 20.6-73 20.6-41.2 0-57.6-12.2t-16.4-42.6q0-16.8 4.4-42.4l21.2-119.2h67.2l-27.2 155.6zm-1984.4-2.8l-10.4 58.8h-130l36.8-211.6h70.4l-26.8 152.8h60zm-1598.8-19.6l-211.6-18h172.4q13.2 12.8 39.2 18zm1770-18l-3.2 18-169.6-18h172.8zm299.6 38.4l-3.2 18-169.6-18h172.8zm-306.4 0l-3.2 18-169.6-18h172.8zm-294.4-76.8l-3.2 18-169.6-18h172.8zm287.6 115.6l-3.2 18-169.6-18H1982zm306.4 0l-3.2 18-169.6-18h172.8zm1156 0l-3.2 18-169.6-18h172.8zm-3274.8-136L0 83.151h172.4q-2 8-2.8 18zm1846-56.4l-3.2 18-169.2-18h172.4zm6.8-38.4l-3.2 18-169.2-18h172.4zm-13.6 76.8l-3.2 18-169.2-18h172.4zm-6.8 38.4l-3.2 18-169.2-18H2002zM11.2 44.751h172l-6 17.6-166-17.6zm-7.6 76.8h166q.8 10.8 3.2 18l-169.2-18zm518.4-38.4l-7.2 17.6-163.6-17.6H522zM41.2 6.351h172q-9.2 6-17.6 16.4L41.2 6.351zm3705.6 248.8l-169.6-18h158q4.4 11.2 11.6 18zm-3596-39.2l-143.6-17.6h149.6l-6 17.6zm-12.8 38.8L.4 237.151H144l-6 17.6zm1950.4-122.8h17.6q13.6 0 20.6-3 7-3 9-13.8 5.2-29.6 5.2-32.4 0-7.6-6-10-6-2.4-18-2.4h-17.6l-10.8 61.6zm1484.8 9.2l3.336-18.906-6.536-.694h6.659l1.341-7.6q0-.4.4-2.4 0-8.4-17.2-8.4h-12.8l-8.4 49.6h12.4q9.2 0 14.4-2.2 5.2-2.2 6.4-9.4zm-278 0l3.336-18.906-6.536-.694h6.659l1.341-7.6q0-.4.4-2.4 0-8.4-17.2-8.4h-12.8l-8.4 49.6h12.4q9.2 0 14.4-2.2 5.2-2.2 6.4-9.4zm-2730 25.6h29.2v-60.8h-5.6l-23.6 60.8z" vector-effect="non-scaling-stroke" stroke-linecap="round" fill-rule="evenodd" font-size="12" stroke="#000" stroke-width=".25mm"/></svg>