<svg xmlns="http://www.w3.org/2000/svg" width="74" height="79"><path fill="inherit" d="M73.7014 17.4323C72.5616 9.0515 65.1774 2.4469 56.424 1.1671 54.9472.9508 49.3518.1638 36.3901.1638h-.0968c-12.9652 0-15.7468.787-17.2236 1.0033C10.56 2.4114 2.7887 8.3461.9033 16.826c-.9069 4.1762-1.0037 8.8062-.8352 13.0533.2402 6.0906.2868 12.1705.846 18.2363a84.9277 84.9277 0 0 0 2.018 11.9613c1.7923 7.2676 9.0474 13.3156 16.1555 15.7831 7.6103 2.5732 15.7945 3.0003 23.6364 1.2337a35.2013 35.2013 0 0 0 2.5593-.6913c1.9034-.5991 4.1366-1.2692 5.7783-2.4462a.1842.1842 0 0 0 .0752-.1418v-5.8778a.1728.1728 0 0 0-.0673-.1341.1774.1774 0 0 0-.1477-.0326 66.1898 66.1898 0 0 1-15.3382 1.7726c-8.8896 0-11.2805-4.1726-11.9652-5.9098a18.1464 18.1464 0 0 1-1.0395-4.6583.1698.1698 0 0 1 .1351-.1752.173.173 0 0 1 .08.0015 64.9355 64.9355 0 0 0 15.0873 1.7726c1.2223 0 2.441 0 3.6634-.0319 5.1115-.1418 10.499-.4006 15.5281-1.372.1255-.0248.2509-.0461.3585-.078 7.9325-1.5067 15.4815-6.2359 16.2486-18.2115.0287-.4715.1004-4.9384.1004-5.4276.0036-1.6627.5413-11.7947-.0789-18.02ZM61.4925 47.3144h-8.3411V27.107c0-4.2542-1.7923-6.4238-5.4378-6.4238-4.0075 0-6.0148 2.5667-6.0148 7.6362v11.0609h-8.291V28.3194c0-5.0695-2.0109-7.6362-6.0184-7.6362-3.624 0-5.4342 2.1696-5.4378 6.4238v20.2074h-8.334V26.4937c0-4.2542 1.0981-7.6339 3.2942-10.1392 2.2654-2.4993 5.237-3.7826 8.9255-3.7826 4.2691 0 7.4952 1.6236 9.6459 4.8675l2.0755 3.4459 2.079-3.4459c2.1507-3.2439 5.3768-4.8675 9.6388-4.8675 3.6849 0 6.6564 1.2833 8.929 3.7826 2.1962 2.5029 3.2942 5.8826 3.2942 10.1392l-.0072 20.8207Z"/></svg>