<?xml version="1.0" encoding="UTF-8" standalone="no"?>
<svg
   xmlns:dc="http://purl.org/dc/elements/1.1/"
   xmlns:cc="http://creativecommons.org/ns#"
   xmlns:rdf="http://www.w3.org/1999/02/22-rdf-syntax-ns#"
   xmlns:svg="http://www.w3.org/2000/svg"
   xmlns="http://www.w3.org/2000/svg"
   xmlns:xlink="http://www.w3.org/1999/xlink"
   xmlns:sodipodi="http://sodipodi.sourceforge.net/DTD/sodipodi-0.dtd"
   xmlns:inkscape="http://www.inkscape.org/namespaces/inkscape"
   width="480"
   height="440"
   id="svg3336"
   version="1.1"
   inkscape:version="0.91 r13725"
   sodipodi:docname="compass.svg">
  <sodipodi:namedview
     pagecolor="#ffffff"
     bordercolor="#666666"
     borderopacity="1"
     objecttolerance="10"
     gridtolerance="10"
     guidetolerance="10"
     inkscape:pageopacity="0"
     inkscape:pageshadow="2"
     inkscape:window-width="1600"
     inkscape:window-height="838"
     id="namedview3379"
     showgrid="false"
     inkscape:zoom="1.0123239"
     inkscape:cx="295.16357"
     inkscape:cy="260.42766"
     inkscape:window-x="-8"
     inkscape:window-y="-8"
     inkscape:window-maximized="1"
     inkscape:current-layer="layer2"
     showguides="true"
     inkscape:guide-bbox="true">
    <sodipodi:guide
       id="guide4164"
       orientation="0,1"
       position="508,-70" />
  </sodipodi:namedview>
  <metadata
     id="metadata3383">
    <rdf:RDF>
      <cc:Work
         rdf:about="">
        <dc:format>image/svg+xml</dc:format>
        <dc:type
           rdf:resource="http://purl.org/dc/dcmitype/StillImage" />
        <dc:title>compass</dc:title>
      </cc:Work>
    </rdf:RDF>
  </metadata>
  <defs
     id="defs3381">
    <linearGradient
       inkscape:collect="always"
       id="linearGradient4208">
      <stop
         style="stop-color:#ffffff;stop-opacity:1;"
         offset="0"
         id="stop4210" />
      <stop
         style="stop-color:#ffffff;stop-opacity:0;"
         offset="1"
         id="stop4212" />
    </linearGradient>
    <inkscape:path-effect
       effect="skeletal"
       id="path-effect4209"
       is_visible="true"
       pattern="m 673.7733,186.39471 3.7954,0 0,10.86647 -3.7954,0 z"
       copytype="repeated"
       prop_scale="0.6"
       scale_y_rel="false"
       spacing="29.6"
       normal_offset="0"
       tang_offset="0"
       prop_units="false"
       vertical_pattern="false"
       fuse_tolerance="0" />
    <inkscape:path-effect
       fuse_tolerance="0"
       vertical_pattern="false"
       prop_units="false"
       tang_offset="0"
       normal_offset="0"
       spacing="0"
       scale_y_rel="false"
       prop_scale="1"
       copytype="single_stretched"
       pattern="M 0,0 1,0"
       is_visible="true"
       id="path-effect4207"
       effect="skeletal" />
    <inkscape:path-effect
       effect="skeletal"
       id="path-effect4209-6"
       is_visible="true"
       pattern="m 673.7733,186.39471 3.7954,0 0,10.86647 -3.7954,0 z"
       copytype="repeated"
       prop_scale="0.6"
       scale_y_rel="false"
       spacing="29.6"
       normal_offset="0"
       tang_offset="0"
       prop_units="false"
       vertical_pattern="false"
       fuse_tolerance="0" />
    <inkscape:path-effect
       effect="skeletal"
       id="path-effect4209-6-0"
       is_visible="true"
       pattern="m 675.57552,182.78111 3.7954,0 0,10.86647 -3.7954,0 z"
       copytype="repeated"
       prop_scale="0.6"
       scale_y_rel="false"
       spacing="29.6"
       normal_offset="0"
       tang_offset="0"
       prop_units="false"
       vertical_pattern="false"
       fuse_tolerance="0" />
    <radialGradient
       inkscape:collect="always"
       xlink:href="#linearGradient4208"
       id="radialGradient4214"
       cx="252.88347"
       cy="226.13566"
       fx="252.88347"
       fy="226.13566"
       r="386.66279"
       gradientTransform="matrix(1,0,0,0.90419702,0,21.66447)"
       gradientUnits="userSpaceOnUse" />
    <filter
       inkscape:collect="always"
       style="color-interpolation-filters:sRGB"
       id="filter4540"
       x="-0.12200968"
       width="1.2440194"
       y="-0.14095528"
       height="1.2819106">
      <feGaussianBlur
         inkscape:collect="always"
         stdDeviation="28.021911"
         id="feGaussianBlur4542" />
    </filter>
  </defs>
  <title
     id="title3338">compass</title>
  <g
     inkscape:groupmode="layer"
     id="layer2"
     inkscape:label="Bakground">
    <rect
       style="opacity:0.827;fill:url(#radialGradient4214);fill-opacity:1;stroke:#ffffff;stroke-width:4.998;stroke-linejoin:round;stroke-miterlimit:4;stroke-dasharray:none;stroke-dashoffset:0;stroke-opacity:1;filter:url(#filter4540)"
       id="rect4188"
       width="551.20697"
       height="477.12003"
       x="-22.720001"
       y="-12.424367" />
  </g>
  <g
     inkscape:groupmode="layer"
     id="layer1"
     inkscape:label="Compass Outer"
     style="display:inline"
     sodipodi:insensitive="true">
    <g
       transform="translate(2.9793594,-4.364186)"
       id="g3340">
      <title
         id="title3342">Outlines</title>
      <rect
         style="opacity:1;fill:#ffffff;fill-opacity:0;stroke:#000000;stroke-width:7;stroke-linejoin:round;stroke-miterlimit:4;stroke-dasharray:none"
         id="svg_3"
         height="260"
         width="400"
         y="123.46289"
         x="-20.133499"
         transform="matrix(0.96179319,-0.27377702,0.27377702,0.96179319,0,0)" />
    </g>
    <g
       transform="translate(10.229359,-2.364186)"
       style="stroke-width:9;stroke-miterlimit:4;stroke-dasharray:none"
       id="g3347">
      <title
         id="title3349">Arrows</title>
      <polyline
         transform="translate(-1,-1)"
         style="fill:none;stroke:#000000;stroke-width:9;stroke-miterlimit:4;stroke-dasharray:none;marker-end:url(#se_marker_end_svg_1)"
         points="232.40234375,112.00833129882812 303.40234375,91.50833129882812 374.40234375,71.00833129882812 "
         id="svg_1" />
      <polyline
         transform="translate(1.5,-0.5)"
         style="fill:none;stroke:#000000;stroke-width:9;stroke-miterlimit:4;stroke-dasharray:none;marker-end:url(#se_marker_end_svg_2)"
         points="279.40234375,252.5083312988281 350.40234375,232.00833129882812 421.40234375,211.50833129882812 "
         id="svg_2" />
      <line
         style="fill:none;stroke:#000000;stroke-width:9;stroke-miterlimit:4;stroke-dasharray:none"
         stroke-linejoin="null"
         stroke-linecap="null"
         x1="300"
         y1="168"
         x2="396"
         y2="140"
         id="svg_6" />
      <line
         style="fill:none;stroke:#000000;stroke-width:13.57216644;stroke-miterlimit:4;stroke-dasharray:none"
         id="svg_7"
         y2="115.17931"
         x2="355.63995"
         y1="139.83861"
         x1="401.43231"
         stroke-linecap="null"
         stroke-linejoin="null" />
      <line
         style="fill:none;stroke:#000000;stroke-width:13.32979488;stroke-miterlimit:4;stroke-dasharray:none"
         id="svg_12"
         y2="132.6075"
         x2="402.36566"
         y1="180.52565"
         x1="376.18854"
         stroke-linecap="null"
         stroke-linejoin="null" />
    </g>
    <g
       transform="translate(2.9793594,-4.364186)"
       id="g3356">
      <title
         id="title3358">Wristband Top</title>
    </g>
    <g
       transform="translate(10.979359,-2.364186)"
       id="g3362">
      <title
         id="title3364">Wristband Foundation</title>
      <circle
         style="fill:none;stroke:#000000;stroke-width:7;stroke-linecap:round;stroke-miterlimit:4;stroke-dasharray:none"
         stroke-linejoin="null"
         cx="98"
         cy="340"
         r="14"
         id="svg_19" />
    </g>
    <g
       transform="translate(2.9793594,-4.364186)"
       id="g3367">
      <title
         id="title3369">Compass House Inner Lines</title>
    </g>
    <g
       transform="translate(2.9793594,-4.364186)"
       id="g3371">
      <title
         id="title3373">Compass House Edge</title>
    </g>
    <g
       transform="translate(2.9793594,-4.364186)"
       id="g3375">
      <title
         id="title3377">Compass Needle</title>
    </g>
    <path
       sodipodi:nodetypes="cscscccsscsc"
       inkscape:connector-curvature="0"
       id="path4191"
       d="m 174.82095,382.04261 c -12.61417,-4.51353 -47.19158,-10.65327 -62.11647,-24.65058 -1.05182,-0.98643 -2.27702,-1.87709 -2.89925,-3.10486 -3.0347,-21.85112 9.06274,-15.16795 18.34761,-6.35545 4.6909,4.45226 8.04519,9.18285 9.60495,11.58221 6.00537,10.21053 26.03978,18.13831 36.05233,22.05552 45.84053,17.57077 89.6514,-11.20747 127.17512,-3.40944 29.22899,7.11831 35.46949,26.17839 47.42499,26.77648 18.13774,0.90737 21.70431,-15.43177 2.30357,-23.35748 -11.60346,-4.74031 -21.39931,1.35478 -36.52663,15.3521 -39.03667,33.9722 -80.05843,33.32448 -115.52575,18.94324 -44.32067,-17.97109 -93.46094,-30.28634 -144.126041,4.84484"
       style="opacity:1;fill:none;fill-rule:evenodd;stroke:#000000;stroke-width:5;stroke-linecap:butt;stroke-linejoin:miter;stroke-miterlimit:4;stroke-dasharray:none;stroke-dashoffset:0;stroke-opacity:1" />
    <path
       sodipodi:nodetypes="ccccc"
       inkscape:connector-curvature="0"
       id="path5651"
       d="m 114.71811,354.73273 c -5.16147,1.71745 -10.0044,0.36314 -10.0044,0.36314 l 5.06098,4.66727 11.61343,-3.33784 z"
       style="fill:#ffffff;fill-opacity:1;fill-rule:evenodd;stroke:#ffffff;stroke-width:1.01721895px;stroke-linecap:butt;stroke-linejoin:miter;stroke-opacity:1" />
    <path
       inkscape:connector-curvature="0"
       d="m 155.55107,366.31423 c -0.66814,0.74266 -1.24849,1.55598 -1.84631,2.35441 -0.42521,0.56789 -0.85581,1.13173 -1.28305,1.6981 -0.71513,0.96707 -1.44613,1.92146 -2.26461,2.80355 -0.43632,0.43796 -0.81126,0.92725 -1.19511,1.41008 -0.30479,0.40096 -0.64564,0.7672 -1.04771,1.07084 -0.36618,0.25437 -0.70178,0.54906 -1.0485,0.82863 -0.31549,0.29565 -0.65399,0.56411 -0.98283,0.84431 -0.21904,0.20896 -0.40557,0.44866 -0.58349,0.69271 -0.12417,0.17215 -0.27949,0.31945 -0.37342,0.51122 -0.0655,0.16123 -0.0716,0.33582 -0.0763,0.50737 -0.009,0.1577 0.0189,0.31231 0.1003,0.44836 0.0679,0.13024 0.17679,0.20302 0.31592,0.23841 0.27205,0.10088 0.55217,0.1749 0.83663,0.2308 0.26696,0.0505 0.53804,0.067 0.80909,0.0731 0.0376,3.8e-4 0.0753,0.004 0.11279,0.001 0.0653,-0.004 0.14019,-0.0201 0.19977,-0.0483 0.0349,-0.0165 0.13294,-0.0789 0.0993,-0.0599 -1.02408,0.57922 -1.27941,0.79809 -0.82633,0.43388 0.48446,-0.52963 0.88637,-1.13907 1.30346,-1.72331 0.50022,-0.67112 1.07307,-1.28183 1.59704,-1.93376 0.89699,-1.05964 1.73862,-2.16546 2.64657,-3.2156 0.66113,-0.72138 1.37805,-1.38858 2.08308,-2.06628 0.28077,-0.27411 0.57974,-0.528 0.8726,-0.78868 0.10788,-0.096 0.19188,-0.22573 0.32032,-0.29179 0.51769,-0.26627 1.04407,-0.52879 1.60149,-0.69666 0.19998,-0.0602 0.41736,0.0172 0.62603,0.0258 0.83967,0.0397 1.67522,0.1852 2.51703,0.1779 0.29249,-0.006 0.57705,-0.087 0.85069,-0.18483 0.21416,-0.069 0.41172,-0.18828 0.64058,-0.19707 0.0263,0.008 0.0555,0.009 0.0788,0.0238 0.21531,0.13464 0.1343,0.57159 0.11926,0.77129 -0.0794,0.64786 -0.26093,1.2731 -0.50382,1.87683 -0.29779,0.75514 -0.6848,1.46584 -1.1113,2.15474 -0.37816,0.59211 -0.83123,1.12635 -1.32373,1.62508 -0.49984,0.51748 -1.03399,0.99936 -1.58999,1.45537 -0.55262,0.45884 -1.10636,0.91512 -1.66984,1.36036 -0.73527,0.51597 -1.51719,0.9736 -2.33649,1.34405 -0.47863,0.21555 -1.86383,1.01746 0.12036,-0.10365 -0.30602,0.21841 -0.60905,0.43929 -0.8653,0.7158 -0.1923,0.25037 -0.4278,0.47354 -0.59067,0.74506 -0.0126,0.0364 -0.0441,0.0828 -0.0135,0.12238 0.0815,0.10555 0.30444,0.11248 0.41974,0.12999 0.36552,0.0715 0.73758,0.10606 1.1097,0.0962 0.38585,-0.0473 0.76547,-0.14055 1.14381,-0.22903 0.26298,-0.0969 0.53968,-0.15052 0.80314,-0.24607 0.22575,-0.0819 0.36562,-0.15398 0.58832,-0.2579 0.12498,-0.0654 0.49417,-0.2717 0.37495,-0.19628 -0.21513,0.13609 -0.43207,0.27196 -0.6632,0.37862 -0.13579,0.0627 0.251,-0.16268 0.37534,-0.24577 0.32412,-0.21658 0.63951,-0.44557 0.95902,-0.6688 0.57329,-0.44218 1.15794,-0.86893 1.73991,-1.29957 0.56224,-0.41069 1.0939,-0.85835 1.61902,-1.31486 0.54242,-0.51869 1.06516,-1.05742 1.60278,-1.58104 0.54156,-0.52858 1.11647,-1.0212 1.66012,-1.54752 0.45538,-0.43357 0.84255,-0.92972 1.26627,-1.39265 0,0 1.17165,-0.49043 1.17165,-0.49043 l 0,0 c -0.43463,0.4617 -0.82589,0.96192 -1.28023,1.40515 -0.54234,0.53418 -1.12448,1.0249 -1.67261,1.55305 -0.53596,0.51906 -1.05173,1.05825 -1.5842,1.5809 -0.52712,0.45787 -1.05433,0.91434 -1.61937,1.32547 -0.58145,0.4319 -1.17173,0.85173 -1.73831,1.30334 -0.32667,0.22381 -0.64791,0.4548 -0.97533,0.67756 -0.12444,0.0847 -0.24465,0.176 -0.37386,0.2532 -0.47975,0.28663 -0.96538,0.56337 -1.45221,0.8378 -0.12718,0.0717 -0.25964,0.13357 -0.38946,0.20036 -0.46495,0.21128 -0.94247,0.37981 -1.43757,0.50672 -0.38114,0.0859 -0.76448,0.1806 -1.15556,0.20307 -0.38016,-0.003 -0.75905,-0.0369 -1.13268,-0.10922 -0.19811,-0.0402 -0.51741,-0.10023 -0.54969,-0.35425 -0.005,-0.0355 0.0121,-0.0706 0.0181,-0.10584 0.0675,-0.14984 0.1529,-0.24337 0.25878,-0.36794 0.11355,-0.1336 0.20944,-0.28151 0.32978,-0.40954 0.24093,-0.29747 0.54708,-0.51964 0.85342,-0.74551 0.68415,-0.4077 1.35191,-0.83805 2.07956,-1.16345 0.41374,-0.19405 1.24374,-0.68455 -0.47421,0.31292 -0.0677,0.0393 0.13547,-0.0784 0.20332,-0.11743 0.29466,-0.16946 0.13943,-0.0709 0.42956,-0.27274 0.81647,-0.65119 -0.43842,0.34434 0.47914,-0.364 0.4166,-0.32162 0.80197,-0.68328 1.21817,-1.00566 0.5532,-0.448 1.08049,-0.92647 1.57744,-1.4365 0.4988,-0.49309 0.96259,-1.01853 1.34958,-1.60567 0.43167,-0.67647 0.82007,-1.37757 1.10709,-2.12887 0.24241,-0.58906 0.43653,-1.19566 0.50536,-1.83223 0.004,-0.086 0.0505,-0.49737 -0.0216,-0.57601 -0.0185,-0.0203 -0.0686,-0.009 -0.0856,-0.008 -0.21259,0.0494 -0.40802,0.14907 -0.61704,0.21062 -0.28097,0.0848 -0.56538,0.15896 -0.8622,0.13882 -0.81948,-0.0426 -1.62983,-0.19471 -2.45046,-0.22575 -0.90842,0.003 -0.71947,0.14735 -0.11242,-0.49986 0.0986,-0.10509 -0.20944,0.19797 -0.31667,0.2942 -0.29032,0.26053 -0.58839,0.5125 -0.87104,0.78171 -0.71937,0.68076 -1.44726,1.35389 -2.12847,2.07342 -0.91856,1.03206 -1.76099,2.12861 -2.63037,3.20187 -0.50662,0.65435 -1.06433,1.26452 -1.57331,1.91695 -0.22601,0.31798 -0.45947,0.6303 -0.68384,0.94944 -0.0677,0.0964 -0.33178,0.48133 -0.41371,0.58887 -0.0511,0.067 -0.1078,0.12964 -0.1617,0.19446 -0.45779,0.48808 -0.129,0.16595 -1.38083,0.86338 -0.13515,0.0753 -0.30143,0.0608 -0.44904,0.0584 -0.27288,-0.0122 -0.54463,-0.0399 -0.81203,-0.098 -0.29078,-0.0628 -0.57899,-0.13709 -0.86053,-0.23385 -0.15728,-0.0645 -0.2882,-0.16224 -0.36856,-0.31612 -0.0891,-0.15629 -0.1381,-0.33193 -0.13161,-0.5129 0.002,-0.18498 0.005,-0.37221 0.056,-0.55156 0.0758,-0.21647 0.218,-0.37626 0.37137,-0.54396 0.18048,-0.24898 0.36538,-0.49381 0.57296,-0.72117 0.33391,-0.28715 0.69258,-0.54416 1.00404,-0.85705 0.3437,-0.27614 0.67069,-0.57437 1.03087,-0.82898 0.41917,-0.28768 0.7769,-0.6436 1.08495,-1.04851 0.3878,-0.48492 0.75066,-0.99009 1.19872,-1.42304 0.0917,-0.0953 0.48131,-0.49942 0.55412,-0.57949 0.65568,-0.72102 1.24539,-1.49854 1.84374,-2.26662 0.29906,-0.39276 0.99534,-1.30374 1.28314,-1.69581 0.5594,-0.76207 1.07842,-1.55405 1.68011,-2.2845 0,0 1.1877,-0.51183 1.1877,-0.51183 z"
       id="path4273"
       style="opacity:1;fill:#000000;fill-opacity:1;stroke:#000000;stroke-width:5;stroke-linejoin:round;stroke-miterlimit:4;stroke-dasharray:none;stroke-dashoffset:0;stroke-opacity:1" />
    <path
       inkscape:connector-curvature="0"
       d="m 170.45753,374.01943 c -0.2726,0.2274 -0.53959,0.46023 -0.81935,0.67908 -0.5194,0.34709 -1.04359,0.68449 -1.53679,1.06886 -0.69679,0.57688 -1.2388,1.30811 -1.8137,1.99971 -0.65672,0.76541 -1.38133,1.46822 -2.07374,2.20067 -0.60472,0.65268 -1.1256,1.37593 -1.65007,2.09294 -0.33414,0.44738 -0.66807,0.89602 -0.96205,1.37123 -0.13979,0.25141 -0.28719,0.49636 -0.44873,0.73432 -0.42447,0.46691 -1.01489,0.85288 -1.64551,0.94658 -0.0523,-0.0253 -0.11375,0.0329 -0.16674,0.0154 -0.0237,-0.008 -0.0437,-0.0279 -0.0561,-0.0496 -0.0624,-0.1088 -0.0245,-0.16622 0.0464,-0.24772 0.17867,-0.15865 0.39301,-0.2674 0.59382,-0.39439 0.29051,-0.16135 0.4458,-0.33521 0.59547,-0.62975 0.21693,-0.46626 0.38767,-0.95399 0.65448,-1.39634 0.26962,-0.44703 0.43037,-0.62108 0.7601,-1.03738 0.76043,-0.88559 1.63637,-1.66396 2.59308,-2.33048 0.0942,-0.0577 0.18676,-0.11827 0.28269,-0.17309 0.44843,-0.2562 0.89667,-0.51289 1.35023,-0.75988 0.43514,-0.23697 0.92396,-0.38109 1.393,-0.53172 0.69032,-0.22552 1.39508,-0.40237 2.11385,-0.50631 0.46686,-0.0701 0.93713,-0.11467 1.40614,-0.16845 0.27807,-0.0462 0.54744,-0.0901 0.79482,-0.2295 -0.34215,0.19457 -0.68301,0.39142 -1.02645,0.58371 -0.0242,0.0136 0.0445,-0.0335 0.0686,-0.0474 0.39096,-0.22625 0.7768,-0.46199 1.17622,-0.67297 0.0631,-0.0333 0.12782,0.12255 0.14184,0.1534 0.001,-0.001 0.0215,0.0496 0.0374,0.0404 0.0134,-0.008 0.016,-0.0267 0.0253,-0.0391 0.0151,-0.0201 0.0699,-0.0701 0.0478,-0.0582 -0.95021,0.50798 -1.34282,0.84344 -0.92354,0.49608 0.48152,-0.42446 0.98608,-0.91494 1.64284,-1.03395 0.23951,0.0976 0.23551,0.36063 0.22272,0.58125 -0.0678,0.43582 -0.21524,0.8543 -0.38781,1.25853 -0.23068,0.44448 -0.50042,0.86807 -0.74952,1.30288 -0.29678,0.5325 -0.67546,1.0066 -1.10841,1.43334 -0.44256,0.40108 -0.95596,0.70615 -1.45975,1.02118 -0.76629,0.50159 -1.58062,0.91228 -2.40431,1.30594 -0.0679,0.0303 -0.13749,0.0571 -0.20369,0.091 -0.13495,0.0691 -0.26436,0.14857 -0.39687,0.22226 -0.0617,0.0343 -0.24497,0.14029 -0.18374,0.1052 0.98625,-0.56512 1.24205,-0.7191 0.79105,-0.4497 -0.60017,0.20567 -1.08617,0.69587 -1.67974,0.93616 -0.0943,0.0382 -0.19168,0.0685 -0.28669,0.10491 -0.42268,0.16529 -1.10116,0.57366 0.71211,-0.43804 0.0406,-0.0227 -0.0789,0.0494 -0.11778,0.075 -0.0328,0.0216 -0.17707,0.12114 -0.21221,0.14533 -0.18673,0.12849 -0.36049,0.27167 -0.51743,0.43496 -0.022,0.0254 -0.0441,0.0509 -0.0661,0.0763 0,0 -1.19937,0.51315 -1.19937,0.51315 l 0,0 c 0.0209,-0.0288 0.0418,-0.0577 0.0627,-0.0865 0.1562,-0.17181 0.32074,-0.32762 0.50919,-0.46428 0.59634,-0.38277 1.17675,-0.8133 1.84836,-1.05513 0.49159,-0.18773 1.68957,-0.87828 -0.25807,0.22174 0.72671,-0.41984 1.4392,-0.87249 2.19968,-1.23042 0.20733,-0.0989 0.41524,-0.19675 0.62049,-0.2999 0.075,-0.0377 0.29557,-0.15877 0.224,-0.11493 -0.0713,0.0437 -1.37617,0.80609 -0.62374,0.36636 0.49967,-0.32131 1.0237,-0.60818 1.47478,-1 0.44081,-0.41133 0.82059,-0.87858 1.12419,-1.40057 0.24321,-0.42876 0.48304,-0.85848 0.7342,-1.2823 0.18097,-0.38731 0.32621,-0.7914 0.3984,-1.21421 0.006,-0.0608 0.0525,-0.41817 -0.10146,-0.35615 -0.40829,0.21377 -0.21211,0.11234 0.96701,-0.5705 0.0302,-0.0175 -0.0597,0.0366 -0.0876,0.0577 -0.10215,0.0771 -0.18046,0.17912 -0.28511,0.2533 -0.42358,0.40752 -0.16083,0.16864 -1.30163,0.8126 -0.0996,0.0562 -0.19802,-0.0393 -0.23719,-0.11998 -7e-4,-0.005 9.1e-4,-0.0192 -0.002,-0.0151 -0.003,0.004 0.003,0.0116 0.001,0.0166 -0.004,0.009 -0.0274,0.0265 -0.019,0.0217 0.3581,-0.20488 0.71218,-0.41674 1.06963,-0.62276 0.0253,-0.0146 -0.0487,0.0323 -0.0731,0.0484 -0.40147,0.23515 -0.80293,0.47029 -1.2044,0.70544 -0.25641,0.10896 -0.53125,0.14552 -0.80618,0.18163 -0.46618,0.0492 -0.93263,0.0984 -1.39645,0.16666 -0.70609,0.10248 -1.39911,0.27432 -2.07491,0.50395 -0.37591,0.12577 -0.74471,0.25564 -1.10558,0.4206 -0.0986,0.0451 -0.38349,0.20052 -0.29314,0.14065 0.21826,-0.14462 1.32902,-0.78161 0.51349,-0.31242 -0.98483,0.65157 -1.89017,1.42107 -2.66104,2.31838 -0.31006,0.38991 -0.48556,0.58234 -0.73776,1.00278 -0.25733,0.42901 -0.41611,0.90126 -0.5979,1.36387 -0.12803,0.3054 -0.25546,0.53136 -0.55788,0.69212 -0.19315,0.13111 -0.40531,0.23474 -0.58891,0.37688 -0.006,0.003 -0.088,0.0534 -0.11106,0.0492 -0.0196,-0.004 -0.0592,-0.038 -0.0403,-0.0441 0.0497,-0.0161 0.10705,0.004 0.15488,-0.0231 0.44735,-0.12091 0.88526,-0.48764 -0.85432,0.54246 -0.0298,0.0176 0.0632,-0.0284 0.093,-0.0459 0.0844,-0.0497 0.0982,-0.0699 0.16979,-0.13638 0.17933,-0.22979 0.32629,-0.47897 0.46926,-0.73265 0.30086,-0.48647 0.64748,-0.94272 0.99471,-1.39654 0.53114,-0.71875 1.05772,-1.44378 1.65348,-2.11095 0.69512,-0.73644 1.43204,-1.43354 2.09418,-2.20055 0.56624,-0.6877 1.0938,-1.41725 1.76585,-2.00823 0.48185,-0.3851 0.99008,-0.73134 1.51223,-1.05949 0.27208,-0.21366 0.54308,-0.42715 0.79298,-0.66712 0,0 1.21755,-0.48861 1.21755,-0.48861 z"
       id="path4275"
       style="opacity:1;fill:#000000;fill-opacity:1;stroke:#000000;stroke-width:5;stroke-linejoin:round;stroke-miterlimit:4;stroke-dasharray:none;stroke-dashoffset:0;stroke-opacity:1" />
    <path
       inkscape:connector-curvature="0"
       d="m 150.90319,365.4743 c -0.38564,0.49848 -0.69725,1.04825 -1.06546,1.55927 -0.2786,0.38665 -0.59251,0.77329 -0.88868,1.14642 -0.75459,0.98758 -1.57603,1.91976 -2.3755,2.8702 -0.61939,0.74224 -1.29567,1.43073 -2.02013,2.06962 -0.49778,0.4247 -1.02382,0.81461 -1.54211,1.2136 -0.38925,0.30687 -0.75802,0.64013 -1.16302,0.92647 -0.25739,0.17557 -0.46473,0.40836 -0.67072,0.63912 -0.0305,0.0339 -0.061,0.0678 -0.0915,0.10169 0,0 -1.19736,0.50053 -1.19736,0.50053 l 0,0 c 0.0318,-0.0326 0.0637,-0.0653 0.0955,-0.0979 0.2034,-0.24143 0.41617,-0.47844 0.6656,-0.67366 0.42334,-0.27293 0.79679,-0.61353 1.18894,-0.92802 0.52216,-0.40407 1.05448,-0.7953 1.56473,-1.21449 0.73655,-0.63791 1.43267,-1.31861 2.06024,-2.06581 0.80191,-0.95834 1.63849,-1.88806 2.40223,-2.87831 0.2864,-0.35808 0.61483,-0.75811 0.88058,-1.13245 0.34747,-0.48945 0.63244,-1.01742 0.95902,-1.52013 0,0 1.19766,-0.51611 1.19766,-0.51611 z"
       id="path4277"
       style="opacity:1;fill:#000000;fill-opacity:1;stroke:#000000;stroke-width:5;stroke-linejoin:round;stroke-miterlimit:4;stroke-dasharray:none;stroke-dashoffset:0;stroke-opacity:1" />
    <rect
       transform="matrix(0.96786021,-0.25148878,0.25148878,0.96786021,0,0)"
       y="164.19551"
       x="206.32935"
       height="0.078630172"
       width="0.52057189"
       id="rect4325"
       style="opacity:1;fill:#000000;fill-opacity:1;stroke:#000000;stroke-width:5.60680676;stroke-linejoin:miter;stroke-miterlimit:4;stroke-dasharray:none;stroke-dashoffset:0;stroke-opacity:1" />
    <rect
       y="253.1358"
       x="288.52621"
       height="0"
       width="0"
       id="rect4329"
       style="opacity:1;fill:#000000;fill-opacity:1;stroke:#000000;stroke-width:1;stroke-linejoin:miter;stroke-miterlimit:4;stroke-dasharray:none;stroke-dashoffset:0;stroke-opacity:1" />
    <rect
       transform="matrix(0.96979994,-0.24390178,0.24390178,0.96979994,0,0)"
       y="316.8956"
       x="221.31815"
       height="0.203125"
       width="0.15625"
       id="rect4331"
       style="opacity:1;fill:#000000;fill-opacity:1;stroke:#000000;stroke-width:1;stroke-linejoin:miter;stroke-miterlimit:4;stroke-dasharray:none;stroke-dashoffset:0;stroke-opacity:1" />
  </g>
  <g
     inkscape:groupmode="layer"
     id="layer4"
     inkscape:label="Compass House"
     style="display:inline"
     sodipodi:insensitive="true">
    <circle
       style="display:inline;fill:#ffffff;fill-opacity:0;stroke:#000000;stroke-width:5"
       stroke-linejoin="null"
       stroke-linecap="null"
       cx="185.9375"
       cy="207.57812"
       r="113"
       id="svg_4" />
    <path
       inkscape:connector-curvature="0"
       style="display:inline;opacity:1;fill:#000000;fill-opacity:0;stroke:#000000;stroke-width:5;stroke-linejoin:miter;stroke-miterlimit:4;stroke-dasharray:none;stroke-dashoffset:0;stroke-opacity:1"
       d="m 285.40664,207.96875 a 99.859756,99.859756 0 0 1 -99.85976,99.85976 99.859756,99.859756 0 0 1 -99.859764,-99.85976 99.859756,99.859756 0 0 1 99.859764,-99.85976 99.859756,99.859756 0 0 1 99.85976,99.85976 z"
       id="path9993-4" />
    <path
       style="display:inline;opacity:1;fill:none;fill-opacity:1;stroke:#000000;stroke-width:6.70762968;stroke-linejoin:miter;stroke-miterlimit:4;stroke-dasharray:none;stroke-dashoffset:0;stroke-opacity:1"
       d="m 295.06183,207.96876 c -0.004,1.30993 -0.0354,2.61682 -0.0924,3.92014 l -6.49051,-0.26605 c 0.0463,-1.21555 0.0675,-2.43376 0.063,-3.65409 2.17329,0 4.34659,0 6.51988,0 z m -5.91779,33.50907 c -0.4302,1.21521 -0.88225,2.42269 -1.35562,3.62192 l -5.99555,-2.37047 c 0.44657,-1.12755 0.87274,-2.26245 1.27797,-3.40415 z m -16.06867,29.92091 c -0.77353,1.03807 -1.56424,2.06373 -2.37158,3.07645 l -5.07584,-4.05014 c 0.76445,-0.95713 1.51319,-1.92629 2.24567,-2.90695 z m -24.04391,24.15715 c -1.03445,0.77851 -2.0814,1.53992 -3.14029,2.28372 l -3.73138,-5.30507 c 0.99992,-0.70429 1.9888,-1.4253 2.96611,-2.16248 z m -29.84354,16.21776 c -1.21296,0.43653 -2.43372,0.85128 -3.66175,1.24372 l -1.96215,-6.13523 c 1.15296,-0.36904 2.29956,-0.75947 3.43928,-1.17076 z m -33.46755,6.10276 c -0.18987,0.002 -0.3798,0.003 -0.56979,0.004 -1.11994,-0.004 -2.23765,-0.027 -3.35282,-0.0692 l 0.2278,-6.49511 c 1.0399,0.0333 2.08168,0.0483 3.12502,0.0445 0.177,6.4e-4 0.35395,7.5e-4 0.53086,3.1e-4 z m -33.54961,-5.72838 c -1.21744,-0.42385 -2.42723,-0.86963 -3.62884,-1.3368 l 2.33922,-6.00715 c 1.12967,0.44064 2.26661,0.8608 3.41028,1.25995 z m -29.9977,-15.91897 c -1.04166,-0.76854 -2.07098,-1.55434 -3.08745,-2.35684 l 4.0259,-5.09444 c 0.96061,0.75988 1.93318,1.50396 2.91715,2.23172 z M 97.903265,272.29898 c -0.783454,-1.03082 -1.549894,-2.07421 -2.298787,-3.12963 l 5.287822,-3.75698 c 0.70913,0.99671 1.43489,1.9823 2.17676,2.95624 z M 81.536992,242.53341 c -0.442832,-1.21069 -0.863965,-2.42925 -1.262869,-3.65516 l 6.124988,-1.99476 c 0.375234,1.1511 0.771784,2.29577 1.189118,3.43348 z m -6.287133,-33.42545 c -0.0057,-0.37947 -0.0093,-0.75921 -0.01055,-1.1392 0.0032,-0.92994 0.01967,-1.85835 0.04938,-2.78503 l 6.499594,0.18943 c -0.02248,0.864 -0.03225,1.72927 -0.02909,2.5956 -0.0013,0.354 -4.19e-4,0.70782 0.0026,1.06145 z m 5.538388,-33.58879 c 0.417475,-1.21964 0.856957,-2.43172 1.317913,-3.6357 l 6.018639,2.30787 c -0.43469,1.13176 -0.848821,2.27072 -1.241859,3.41633 z m 15.76868,-30.07389 c 0.763533,-1.04522 1.544388,-2.07819 2.342034,-3.09838 l 5.112929,4.00154 c -0.75529,0.96407 -1.4947,1.94001 -2.2177,2.92728 z m 23.815653,-24.38185 c 1.02717,-0.78838 2.06698,-1.55982 3.1189,-2.3138 l 3.78247,5.27046 c -0.99347,0.71395 -1.97574,1.44445 -2.94629,2.19098 z m 29.68702,-16.5142 c 1.20839,-0.44911 2.42473,-0.87661 3.6485,-1.28195 l 2.02726,6.11463 c -1.14923,0.38141 -2.29195,0.78405 -3.42763,1.2074 z m 33.38276,-6.470918 c 0.5688,-0.01194 1.13822,-0.01889 1.70822,-0.02082 0.73993,0.0025 1.4789,0.01348 2.21679,0.03283 l -0.15095,6.503966 c -0.68787,-0.0138 -1.37652,-0.0194 -2.06584,-0.0169 -0.53101,-0.002 -1.06162,9.9e-4 -1.59178,0.009 z m 33.6266,5.347848 c 1.22183,0.41108 2.43617,0.84424 3.64248,1.29896 l -2.27638,6.03001 c -1.13384,-0.42872 -2.27479,-0.8368 -3.42232,-1.2237 z m 30.1495,15.6178 c 1.04876,0.7585 2.08535,1.53439 3.10923,2.32716 l -3.97706,5.1313 c -0.9675,-0.75067 -1.94679,-1.48539 -2.93735,-2.20362 z m 24.49332,23.70064 c 0.79328,1.0235 1.5697,2.0597 2.32873,3.1081 l -5.25299,3.80784 c -0.71874,-0.99021 -1.45395,-1.96915 -2.20511,-2.93629 z m 16.66152,29.60787 c 0.45538,1.20607 0.88921,2.42017 1.30096,3.64177 l -6.10415,2.05964 c -0.38756,-1.14733 -0.79628,-2.28807 -1.22562,-3.4217 z"
       id="path9993"
       inkscape:path-effect="#path-effect4209-6-0"
       inkscape:original-d="M 291.80189,207.96876 A 106.65131,106.65131 0 0 1 185.15058,314.62007 106.65131,106.65131 0 0 1 78.499252,207.96876 106.65131,106.65131 0 0 1 185.15058,101.31743 106.65131,106.65131 0 0 1 291.80189,207.96876 Z"
       inkscape:connector-curvature="0" />
  </g>
  <g
     inkscape:groupmode="layer"
     id="layer3"
     inkscape:label="Compass Inner"
     style="display:inline"
     sodipodi:insensitive="true">
    <path
       style="fill:none;fill-rule:evenodd;stroke:#000000;stroke-width:2;stroke-linecap:butt;stroke-linejoin:miter;stroke-miterlimit:4;stroke-dasharray:none;stroke-opacity:1"
       d="m 121.87135,132.964 152.83693,117.32936 0,0"
       id="path4325"
       inkscape:connector-curvature="0" />
    <path
       style="display:inline;fill:none;fill-rule:evenodd;stroke:#000000;stroke-width:2;stroke-linecap:butt;stroke-linejoin:miter;stroke-miterlimit:4;stroke-dasharray:none;stroke-opacity:1"
       d="m 106.94125,146.2132 158.79502,121.90325 0,0"
       id="path4325-3"
       inkscape:connector-curvature="0" />
    <path
       style="display:inline;fill:none;fill-rule:evenodd;stroke:#000000;stroke-width:2;stroke-linecap:butt;stroke-linejoin:miter;stroke-miterlimit:4;stroke-dasharray:none;stroke-opacity:1"
       d="m 96.108338,165.46087 152.496822,117.06827 0,0"
       id="path4325-4"
       inkscape:connector-curvature="0" />
    <path
       style="display:inline;fill:none;fill-rule:evenodd;stroke:#000000;stroke-width:2;stroke-linecap:butt;stroke-linejoin:miter;stroke-miterlimit:4;stroke-dasharray:none;stroke-opacity:1"
       d="m 88.275811,186.66046 142.322289,109.25752 0,0"
       id="path4325-5"
       inkscape:connector-curvature="0" />
    <path
       style="display:inline;fill:none;fill-rule:evenodd;stroke:#000000;stroke-width:2;stroke-linecap:butt;stroke-linejoin:miter;stroke-miterlimit:4;stroke-dasharray:none;stroke-opacity:1"
       d="m 85.068161,209.61035 124.408459,95.50549 0,0"
       id="path4325-2"
       inkscape:connector-curvature="0" />
    <path
       style="display:inline;fill:none;fill-rule:evenodd;stroke:#000000;stroke-width:2;stroke-linecap:butt;stroke-linejoin:miter;stroke-miterlimit:4;stroke-dasharray:none;stroke-opacity:1"
       d="m 86.993168,234.91697 95.364742,73.2093 0,0"
       id="path4325-35"
       inkscape:connector-curvature="0" />
    <path
       style="display:inline;fill:none;fill-rule:evenodd;stroke:#000000;stroke-width:2;stroke-linecap:butt;stroke-linejoin:miter;stroke-miterlimit:4;stroke-dasharray:none;stroke-opacity:1"
       d="m 138.66815,119.8988 143.19312,109.92604 0,0"
       id="path4325-54"
       inkscape:connector-curvature="0" />
    <path
       style="display:inline;fill:none;fill-rule:evenodd;stroke:#000000;stroke-width:2;stroke-linecap:butt;stroke-linejoin:miter;stroke-miterlimit:4;stroke-dasharray:none;stroke-opacity:1"
       d="m 159.21393,111.36372 126.08949,96.79598 0,0"
       id="path4325-7"
       inkscape:connector-curvature="0" />
    <path
       style="display:inline;fill:none;fill-rule:evenodd;stroke:#000000;stroke-width:2;stroke-linecap:butt;stroke-linejoin:miter;stroke-miterlimit:4;stroke-dasharray:none;stroke-opacity:1"
       d="m 186.23586,107.7027 98.2087,75.39255 0,0"
       id="path4325-6"
       inkscape:connector-curvature="0" />
  </g>
  <g
     inkscape:groupmode="layer"
     id="layer6"
     inkscape:label="Compass Needle"
     sodipodi:insensitive="true">
    <path
       style="fill:#ffffff;fill-opacity:1;fill-rule:evenodd;stroke:#ffffff;stroke-width:4.4135108;stroke-linecap:butt;stroke-linejoin:miter;stroke-miterlimit:4;stroke-dasharray:none;stroke-opacity:1"
       d="m 171.14181,282.39011 -0.15207,-132.39141 14.7242,-24.16447 14.76975,24.30688 0.0236,132.21719 z"
       id="path4790-5"
       inkscape:connector-curvature="0"
       sodipodi:nodetypes="cccccc" />
    <path
       style="fill:#dc3434;fill-opacity:1;fill-rule:evenodd;stroke:#000000;stroke-width:4;stroke-linecap:butt;stroke-linejoin:miter;stroke-miterlimit:4;stroke-dasharray:none;stroke-opacity:1"
       d="m 173.21912,279.63796 -0.13105,-126.19042 12.68869,-23.03265 12.72793,23.16839 0.0203,126.02435 z"
       id="path4790"
       inkscape:connector-curvature="0"
       sodipodi:nodetypes="cccccc" />
    <rect
       style="display:inline;opacity:1;fill:#ffffff;fill-opacity:1;stroke:#ffffff;stroke-width:1.51533818;stroke-linejoin:miter;stroke-miterlimit:4;stroke-dasharray:none;stroke-dashoffset:0;stroke-opacity:1"
       id="rect4502-7-2-2"
       width="19.821274"
       height="69.282295"
       x="175.93756"
       y="207.58061" />
    <circle
       style="opacity:1;fill:#000000;fill-opacity:1;stroke:#000000;stroke-width:4;stroke-linejoin:miter;stroke-miterlimit:4;stroke-dasharray:none;stroke-dashoffset:0;stroke-opacity:1"
       id="path4636-3"
       cx="185.79999"
       cy="206.75998"
       r="4.5" />
  </g>
</svg>
