<svg xmlns="http://www.w3.org/2000/svg" viewBox="0 0 480 440"><g transform="translate(2.98 -4.364)"><path fill="none" stroke="#000" stroke-width="7" stroke-linejoin="round" d="M14.438 124.258L399.155 14.747l71.182 250.066L85.62 374.324z"/></g><g transform="translate(10.23 -2.364)" stroke-width="9"><path transform="translate(-1 -1)" fill="none" stroke="#000" marker-end="url(#se_marker_end_svg_1)" d="M232.402 112.008l71-20.5 71-20.5"/><path transform="translate(1.5 -.5)" fill="none" stroke="#000" marker-end="url(#se_marker_end_svg_2)" d="M279.402 252.508l71-20.5 71-20.5"/><path stroke-linejoin="null" stroke-linecap="null" fill="none" stroke="#000" d="M300 168l96-28"/><path stroke-linecap="null" stroke-linejoin="null" fill="none" stroke="#000" stroke-width="13.572" d="M401.432 139.839l-45.792-24.66"/><path stroke-linecap="null" stroke-linejoin="null" fill="none" stroke="#000" stroke-width="13.33" d="M376.189 180.526l26.177-47.919"/></g><g transform="translate(10.98 -2.364)"><circle stroke-linejoin="null" cx="98" cy="340" r="14" fill="none" stroke="#000" stroke-width="7" stroke-linecap="round"/></g><path d="M174.821 382.043c-12.614-4.514-47.192-10.654-62.117-24.651-1.051-.986-2.277-1.877-2.899-3.105-3.034-21.85 9.063-15.168 18.348-6.355 4.69 4.452 8.045 9.183 9.605 11.582 6.005 10.21 26.04 18.138 36.052 22.055 45.84 17.571 89.652-11.207 127.175-3.409 29.23 7.118 35.47 26.178 47.425 26.776 18.138.908 21.705-15.431 2.304-23.357-11.604-4.74-21.4 1.355-36.527 15.352-39.037 33.972-80.058 33.325-115.526 18.943-44.32-17.97-93.46-30.286-144.126 4.845" fill="none" stroke="#000" stroke-width="5"/><path d="M155.551 366.314c-.668.743-1.248 1.556-1.846 2.355-.425.568-.856 1.131-1.283 1.698-.715.967-1.446 1.921-2.265 2.803-.436.438-.811.928-1.195 1.41a5.463 5.463 0 0 1-1.048 1.071c-.366.255-.701.55-1.048.829-.316.295-.654.564-.983.844a5.069 5.069 0 0 0-.584.693c-.124.172-.279.32-.373.511-.065.161-.072.336-.076.507a.774.774 0 0 0 .1.449c.068.13.177.203.316.238.272.101.552.175.837.231.267.05.538.067.809.073.037 0 .075.004.112.001a.57.57 0 0 0 .2-.048.675.675 0 0 0 .1-.06c-1.025.58-1.28.798-.827.434.485-.53.887-1.14 1.304-1.724.5-.67 1.073-1.281 1.597-1.933.897-1.06 1.738-2.166 2.646-3.216.661-.721 1.378-1.388 2.083-2.066.281-.274.58-.528.873-.789.108-.096.192-.226.32-.292.518-.266 1.044-.528 1.602-.696.2-.06.417.017.626.026.84.04 1.675.185 2.517.177.292-.006.577-.087.85-.184.215-.07.412-.189.641-.197.026.008.056.009.079.023.215.135.134.572.12.772a7.465 7.465 0 0 1-.505 1.876c-.297.756-.684 1.466-1.111 2.155a9.947 9.947 0 0 1-1.324 1.625c-.5.518-1.034 1-1.59 1.456-.552.458-1.106.915-1.67 1.36-.735.516-1.517.974-2.336 1.344-.479.216-1.864 1.017.12-.104-.306.219-.609.44-.865.716-.192.25-.428.474-.59.745-.013.037-.045.083-.014.123.081.105.304.112.42.13.365.071.737.106 1.11.096.385-.047.765-.14 1.143-.23.263-.096.54-.15.803-.245.226-.082.366-.154.589-.258.125-.066.494-.272.375-.196a5.81 5.81 0 0 1-.664.378c-.135.063.251-.163.376-.246.324-.216.64-.445.959-.668.573-.443 1.158-.87 1.74-1.3a24.6 24.6 0 0 0 1.619-1.315c.542-.519 1.065-1.057 1.602-1.58.542-.53 1.117-1.022 1.66-1.548.456-.434.843-.93 1.267-1.393l1.171-.49c-.434.461-.825.961-1.28 1.405-.542.534-1.124 1.025-1.672 1.553-.536.519-1.052 1.058-1.585 1.58-.527.458-1.054.915-1.619 1.326-.581.432-1.172.852-1.738 1.303-.327.224-.648.455-.976.678-.124.085-.244.176-.373.253-.48.287-.966.564-1.453.838-.127.072-.26.134-.39.2a8.66 8.66 0 0 1-1.437.507c-.38.086-.764.18-1.155.203a6.212 6.212 0 0 1-1.133-.11c-.198-.04-.517-.1-.55-.353-.005-.036.012-.07.018-.106.068-.15.153-.244.26-.368.113-.134.209-.282.329-.41.241-.297.547-.52.853-.745.685-.408 1.352-.838 2.08-1.164.414-.194 1.244-.684-.474.313l.203-.117c.295-.17.14-.071.43-.273.816-.651-.439.344.479-.364.416-.321.802-.683 1.218-1.006.553-.448 1.08-.926 1.577-1.436.5-.493.963-1.019 1.35-1.606.432-.676.82-1.377 1.107-2.129.243-.589.437-1.195.505-1.832.004-.086.051-.497-.021-.576-.019-.02-.069-.009-.086-.008-.212.05-.408.15-.617.21-.28.086-.565.16-.862.14-.82-.043-1.63-.195-2.45-.226-.909.003-.72.147-.113-.5.099-.105-.21.198-.317.294-.29.26-.588.513-.87.782-.72.68-1.448 1.354-2.129 2.073-.919 1.032-1.761 2.129-2.63 3.202-.507.655-1.065 1.265-1.574 1.917-.226.318-.46.63-.684.95-.067.096-.331.48-.413.588-.051.067-.108.13-.162.195-.458.488-.129.166-1.38.863-.136.076-.302.061-.45.059a4.833 4.833 0 0 1-.812-.098 7.538 7.538 0 0 1-.86-.234.689.689 0 0 1-.369-.316.965.965 0 0 1-.132-.513c.002-.185.005-.372.056-.552.076-.216.218-.376.372-.544.18-.249.365-.493.573-.72.334-.288.692-.545 1.004-.858.344-.276.67-.574 1.03-.829.42-.288.778-.643 1.086-1.048.387-.485.75-.99 1.198-1.423.092-.096.482-.5.554-.58.656-.72 1.246-1.498 1.844-2.267.3-.392.996-1.303 1.283-1.695.56-.762 1.079-1.554 1.68-2.285l1.188-.512zM170.458 374.02c-.273.227-.54.46-.82.679-.52.347-1.043.684-1.537 1.068-.696.577-1.238 1.308-1.813 2-.657.765-1.382 1.468-2.074 2.2-.605.653-1.126 1.377-1.65 2.094-.334.447-.668.896-.962 1.37-.14.252-.287.497-.449.735-.424.467-1.015.853-1.645.947-.053-.025-.114.033-.167.015a.109.109 0 0 1-.056-.05c-.063-.108-.025-.166.046-.247.179-.159.393-.268.594-.394.29-.162.446-.336.595-.63.217-.467.388-.954.655-1.397.27-.447.43-.62.76-1.037a13.83 13.83 0 0 1 2.593-2.33c.094-.058.187-.119.283-.174.448-.256.896-.512 1.35-.76.435-.236.924-.38 1.393-.531.69-.226 1.395-.403 2.114-.506.467-.07.937-.115 1.406-.169.278-.046.547-.09.795-.23-.342.195-.683.392-1.027.584a.362.362 0 0 1 .069-.047c.39-.226.777-.462 1.176-.673.063-.033.128.123.142.153.001 0 .022.05.037.04.014-.007.016-.026.026-.038.015-.02.07-.07.048-.059-.95.508-1.343.844-.924.497.482-.425.986-.915 1.643-1.034.24.097.235.36.223.58a5.303 5.303 0 0 1-.388 1.26c-.23.444-.5.867-.75 1.302a6.38 6.38 0 0 1-1.108 1.434c-.443.4-.956.706-1.46 1.02-.766.502-1.58.913-2.404 1.307-.068.03-.138.057-.204.09-.135.07-.264.15-.397.223-.062.034-.245.14-.184.105.987-.565 1.243-.719.792-.45-.6.206-1.087.696-1.68.937-.095.038-.192.068-.287.105-.423.165-1.101.573.712-.439.04-.022-.079.05-.118.075l-.212.146c-.187.128-.36.271-.517.435l-.066.076-1.2.513.063-.086c.156-.172.32-.328.51-.465.596-.382 1.176-.813 1.848-1.055.491-.187 1.69-.878-.259.222.727-.42 1.44-.872 2.2-1.23.207-.1.415-.197.62-.3.076-.038.296-.159.225-.115-.072.044-1.377.806-.624.366.5-.321 1.024-.608 1.475-1 .44-.411.82-.878 1.124-1.4.243-.43.483-.859.734-1.283.181-.387.326-.791.398-1.214.006-.06.053-.418-.101-.356-.408.214-.212.112.967-.57.03-.018-.06.036-.088.057-.102.077-.18.18-.285.253-.423.408-.16.17-1.301.813-.1.056-.198-.04-.238-.12 0-.005.001-.02-.002-.015-.003.004.003.012.001.017-.004.009-.027.026-.019.021.359-.205.713-.416 1.07-.623.025-.014-.049.033-.073.049l-1.204.705c-.257.11-.532.146-.807.182-.466.05-.932.098-1.396.167-.706.102-1.4.274-2.075.504-.376.125-.745.255-1.105.42-.1.045-.384.2-.294.14.219-.144 1.33-.78.514-.312a12.804 12.804 0 0 0-2.661 2.319c-.31.39-.486.582-.738 1.003-.257.429-.416.9-.598 1.363-.128.306-.255.532-.558.693-.193.13-.405.234-.589.376-.006.003-.088.054-.11.05-.02-.004-.06-.038-.041-.044.05-.017.107.004.155-.024.447-.12.885-.487-.854.543a.53.53 0 0 0 .093-.046c.084-.05.098-.07.17-.136.179-.23.326-.48.469-.733.3-.487.647-.943.994-1.397.531-.718 1.058-1.443 1.654-2.11.695-.737 1.432-1.434 2.094-2.201.566-.688 1.094-1.417 1.766-2.008.482-.385.99-.732 1.512-1.06.272-.213.543-.427.793-.667l1.218-.489zM150.903 365.474c-.385.499-.697 1.049-1.065 1.56-.279.386-.593.773-.889 1.146-.755.988-1.576 1.92-2.375 2.87-.62.742-1.296 1.43-2.02 2.07-.498.425-1.024.814-1.543 1.213-.389.307-.758.64-1.163.927-.257.175-.464.408-.67.639l-.092.102-1.197.5.095-.098c.204-.241.416-.478.666-.673.423-.273.797-.614 1.189-.928.522-.404 1.054-.796 1.564-1.215a18.413 18.413 0 0 0 2.06-2.066c.803-.958 1.64-1.888 2.403-2.878.286-.358.615-.758.88-1.132.348-.49.633-1.018.96-1.52l1.197-.517z" stroke="#000" stroke-width="5" stroke-linejoin="round"/><path stroke="#000" stroke-width="5.607" d="M240.991 107.03l.504-.132.02.077-.504.13z"/><path stroke="#000" d="M291.926 253.346l.151-.038.05.197-.152.038z"/><g fill="none" stroke="#000"><circle stroke-linejoin="null" stroke-linecap="null" cx="185.938" cy="207.578" r="113" stroke-width="5"/><path d="M285.407 207.969a99.86 99.86 0 0 1-99.86 99.86 99.86 99.86 0 0 1-99.86-99.86 99.86 99.86 0 0 1 99.86-99.86 99.86 99.86 0 0 1 99.86 99.86z" stroke-width="5"/><path d="M295.062 207.969a96.458 96.458 0 0 1-.093 3.92l-6.49-.266a87.52 87.52 0 0 0 .063-3.654h6.52zm-5.918 33.509a108.31 108.31 0 0 1-1.356 3.622l-5.995-2.37c.446-1.128.873-2.263 1.278-3.405zm-16.069 29.92a119.04 119.04 0 0 1-2.371 3.077l-5.076-4.05c.764-.957 1.513-1.926 2.246-2.907zm-24.044 24.158c-1.034.778-2.08 1.54-3.14 2.284l-3.731-5.305c1-.705 1.989-1.426 2.966-2.163zm-29.843 16.218c-1.213.436-2.434.85-3.662 1.243l-1.962-6.135a99.41 99.41 0 0 0 3.44-1.17zm-33.468 6.102l-.57.004a97.91 97.91 0 0 1-3.352-.069l.228-6.495a87.66 87.66 0 0 0 3.125.045h.53zm-33.55-5.728c-1.217-.424-2.426-.87-3.628-1.337l2.34-6.007c1.129.44 2.266.86 3.41 1.26zm-29.997-15.919a118.957 118.957 0 0 1-3.087-2.357l4.026-5.094c.96.76 1.933 1.504 2.917 2.231zm-24.27-23.93c-.783-1.03-1.55-2.074-2.299-3.13l5.288-3.757c.71.997 1.435 1.983 2.177 2.957zm-16.366-29.766c-.443-1.21-.864-2.429-1.263-3.655l6.125-1.995a99.659 99.659 0 0 0 1.19 3.434zm-6.287-33.425c-.006-.38-.01-.76-.01-1.14.003-.93.019-1.858.049-2.784l6.5.19c-.023.863-.033 1.728-.03 2.595-.001.354 0 .708.003 1.061zm5.538-33.589c.418-1.22.857-2.432 1.318-3.636l6.019 2.308a100.39 100.39 0 0 0-1.242 3.417zm15.769-30.074a118.864 118.864 0 0 1 2.342-3.098l5.113 4.001c-.755.965-1.495 1.94-2.218 2.928zm23.816-24.382c1.027-.788 2.067-1.56 3.118-2.313l3.783 5.27c-.994.714-1.976 1.445-2.946 2.191zm29.687-16.514c1.208-.449 2.424-.876 3.648-1.282l2.027 6.115c-1.149.381-2.292.784-3.427 1.207zm33.382-6.47a97.052 97.052 0 0 1 1.709-.022c.74.003 1.478.014 2.216.033l-.15 6.504a87.222 87.222 0 0 0-2.066-.017 84.34 84.34 0 0 0-1.592.01zm33.627 5.347c1.222.411 2.436.844 3.642 1.3l-2.276 6.03a100.11 100.11 0 0 0-3.422-1.225zm30.15 15.618a118.74 118.74 0 0 1 3.109 2.327l-3.977 5.131c-.968-.75-1.947-1.485-2.938-2.203zm24.493 23.7c.793 1.024 1.57 2.06 2.329 3.109l-5.253 3.808c-.72-.99-1.454-1.97-2.206-2.937zm16.661 29.608c.456 1.207.89 2.42 1.301 3.642l-6.104 2.06a100.193 100.193 0 0 0-1.226-3.422z" stroke-width="6.708"/></g><g fill="none" stroke="#000" stroke-width="2"><path d="M121.871 132.964l152.837 117.33M106.941 146.213l158.795 121.903M96.108 165.46l152.497 117.07M88.276 186.66l142.322 109.258M85.068 209.61l124.409 95.506M86.993 234.917l95.365 73.21M138.668 119.899l143.193 109.926M159.214 111.364l126.09 96.796M186.236 107.703l98.209 75.392"/></g><g><path d="M173.22 279.638l-.132-126.19 12.689-23.033 12.728 23.168.02 126.025z" fill="#dc3434" fill-rule="evenodd" stroke="#000" stroke-width="4"/><path fill="#fff" stroke="#fff" stroke-width="1.515" d="M175.938 207.581h19.821v69.282h-19.821z"/><circle cx="185.8" cy="206.76" r="4.5" stroke="#000" stroke-width="4"/></g></svg>