<?xml version="1.0" encoding="UTF-8" standalone="no"?>
<!-- Generator: Adobe Illustrator 18.0.0, SVG Export Plug-In . SVG Version: 6.00 Build 0)  -->

<svg
   xmlns:dc="http://purl.org/dc/elements/1.1/"
   xmlns:cc="http://creativecommons.org/ns#"
   xmlns:rdf="http://www.w3.org/1999/02/22-rdf-syntax-ns#"
   xmlns:svg="http://www.w3.org/2000/svg"
   xmlns="http://www.w3.org/2000/svg"
   xmlns:sodipodi="http://sodipodi.sourceforge.net/DTD/sodipodi-0.dtd"
   xmlns:inkscape="http://www.inkscape.org/namespaces/inkscape"
   version="1.1"
   id="Layer_1"
   x="0px"
   y="0px"
   viewBox="0 0 512 512"
   enable-background="new 0 0 512 512"
   xml:space="preserve"
   inkscape:version="0.91 r13725"
   sodipodi:docname="fcc-puck-green.svg"><metadata
     id="metadata3426"><rdf:RDF><cc:Work
         rdf:about=""><dc:format>image/svg+xml</dc:format><dc:type
           rdf:resource="http://purl.org/dc/dcmitype/StillImage" /><dc:title></dc:title></cc:Work></rdf:RDF></metadata><defs
     id="defs3424" /><sodipodi:namedview
     pagecolor="#ffffff"
     bordercolor="#666666"
     borderopacity="1"
     objecttolerance="10"
     gridtolerance="10"
     guidetolerance="10"
     inkscape:pageopacity="0"
     inkscape:pageshadow="2"
     inkscape:window-width="1600"
     inkscape:window-height="876"
     id="namedview3422"
     showgrid="false"
     inkscape:zoom="1.4433594"
     inkscape:cx="256"
     inkscape:cy="256"
     inkscape:window-x="0"
     inkscape:window-y="24"
     inkscape:window-maximized="1"
     inkscape:current-layer="Layer_1" /><path
     fill="#492C14"
     d="M30,0h452c16.6,0,30,13.4,30,30v452c0,16.6-13.4,30-30,30H30c-16.6,0-30-13.4-30-30V30C0,13.4,13.4,0,30,0z"
     id="path3410" /><path
     fill="#392312"
     d="M511.8,264.2L399.6,152l28.9,93l-12,64L292.7,195.2l-8.8-6.1l-31.3-31.4l-10.4,31.8l-13.9,35.7l-95.2-95.2  l-19.4,17l-38.1,80.6c0,0,10.3,91.5,10.3,93.1c0,1.6,22,51.1,22,51.1l147.9,140.6l0.3,0.6h225.7c16.6,0,30-13.4,30-30V264.2z"
     id="path3412" /><path
     fill="#FFFFFF"
     d="M216.9,147.5c0,0,13.4,9.3,13.4,26c0,28.8-39.1,60.9-39.1,90.8c0,32.4,24.7,53.5,48.7,59.9  c3.3,0.8,4.8-3.2,0.7-4.2c-9.7-2.4-20.5-15.1-20.5-35c0-18.3,17.7-25.4,24.9-34.4c7.3-9.1,5.6-20.8,1.3-24.1  c-4.2-3.4-1.4-7.9,6.3-2.5c7.8,5.4,14,15.4,11.7,25c-3,12.2,0.9,19.2,7.3,20.1s13.4-2.3,12.7-8.2c-0.7-5.9-4.2-12.1-2.1-12.1  c4.5,0,14.1,11.2,14.1,28.8c0,17.7-14.6,30.1-19.1,34.7c-2.7,2.8,0.9,6.4,4.5,4.8c1.9-0.8,5.8-3.1,8.2-4.8  c11.6-8.3,29.6-24.9,29.6-55.8c0-32.3-12.3-46.8-24.6-58.9c-12.3-12.1-15.5-9-12-3.1c10.6,18.1,4.2,24.2-3.6,24.2  c-9,0-9.5-20.5-13-36.1c-7.8-34.7-39.1-40.6-45.1-40.9C215.1,141,209.9,144.4,216.9,147.5z"
     id="path3414" /><path
     fill="#FFFFFF"
     d="M63.8,251.1c0-39.7,13.8-75.1,41.4-106.3c10.1-11.4,18-17.2,23.5-17.2c2.1,0,3.9,0.8,5.6,2.3  c1.7,1.5,2.5,3.2,2.5,5.2c0,2.9-3.5,7.7-10.6,14.5C97.4,177.3,83,211.5,83,252.2c0,45.2,14.9,82,44.8,110.5c6,5.7,9,10.3,9,13.7  c0,2.2-0.8,4.1-2.5,5.7s-3.5,2.5-5.7,2.5c-6.9,0-16.7-8.1-29.4-24.2C75.6,330.3,63.8,293.9,63.8,251.1z"
     id="path3416" /><path
     fill="#FFFFFF"
     d="M436.4,261.1c0,39.8-13.8,75.2-41.4,106.4c-10.1,11.4-18,17.2-23.5,17.2c-2.1,0-3.9-0.8-5.6-2.3  c-1.7-1.5-2.5-3.3-2.5-5.3c0-2.8,3.5-7.6,10.6-14.4c28.8-27.6,43.2-61.8,43.2-102.7c0-45.1-14.9-82-44.8-110.5c-6-5.7-9-10.2-9-13.5  c0-2.2,0.8-4.1,2.5-5.8c1.6-1.7,3.5-2.5,5.7-2.5c6.8,0,16.5,8.1,29.3,24.3C424.5,182.2,436.4,218.6,436.4,261.1z"
     id="path3418" /><path
     fill="#FFFFFF"
     d="M344.1,365.2H169.4c-5.7,0-10.4-4.6-10.4-10.4s4.6-10.4,10.4-10.4h174.7c5.7,0,10.4,4.6,10.4,10.4  S349.8,365.2,344.1,365.2z"
     id="path3420" /><path
     style="fill:#006400;stroke:none;stroke-width:1px;stroke-linecap:butt;stroke-linejoin:miter;stroke-opacity:1;fill-opacity:1"
     d="m 256.00798,512.21583 c -0.44436,-0.44436 -41.56066,-0.74848 -117.08941,-0.86604 L 22.514003,511.16861 17.244389,508.56414 C 8.3019158,504.14439 2.3709817,496.19112 0.80075851,486.51353 -0.15741346,480.60814 -0.2115011,31.416616 0.74525632,25.574325 2.7452052,13.361948 12.12339,3.5197679 24.179163,0.98100121 29.438848,-0.1266104 482.74262,-0.12029607 487.9594,0.98746142 496.79836,2.8643675 504.64688,9.037267 508.72483,17.319578 l 2.30521,4.681879 0.51885,170.104543 c 0.28538,93.55751 0.44126,198.31998 0.34642,232.8055 l -0.17244,62.70095 -1.60522,4.44593 c -2.68596,7.43922 -8.32198,14.13645 -14.58556,17.33189 -7.07112,3.60742 -2.84111,3.48914 -125.1808,3.50017 -73.97947,0.007 -113.89755,-0.22885 -114.34331,-0.67461 z M 133.13843,383.15759 c 1.31211,-0.88423 2.75962,-2.69987 3.31425,-4.15711 1.60569,-4.21879 -0.22896,-7.81481 -8.21004,-16.09222 -10.08371,-10.45808 -15.50479,-16.98447 -20.89925,-25.16038 -14.145568,-21.4392 -21.45627,-44.20281 -23.580003,-73.42198 -2.369805,-32.60473 5.098405,-63.90556 21.079793,-88.34979 5.78332,-8.84584 10.51062,-14.60294 20.69025,-25.19742 12.1427,-12.63755 13.77849,-16.49637 8.91778,-21.03695 -5.60203,-5.23308 -13.54084,-1.77282 -26.0912,11.37226 -23.939101,25.0735 -39.23798,56.41442 -43.446338,89.00315 -2.283983,17.68671 -1.185924,43.00955 2.691654,62.07348 6.469511,31.80704 22.607148,61.93851 44.258384,82.63722 9.84172,9.40876 16.0605,11.84361 21.27472,8.32974 z m 245.35003,-0.63646 c 9.59936,-5.11641 27.03996,-25.44279 37.5983,-43.81947 10.98943,-19.12699 17.56119,-39.81096 19.82642,-62.4018 1.00923,-10.06492 0.45636,-32.93484 -1.03845,-42.95534 -4.9695,-33.31343 -16.33491,-59.82143 -36.26899,-84.59159 -7.07724,-8.79421 -15.67031,-16.91957 -20.37049,-19.26177 -6.18164,-3.08045 -11.82291,-1.96823 -14.07358,2.77471 -2.39874,5.05497 -0.9868,7.80347 9.9004,19.27219 19.4794,20.51989 29.93235,38.28104 36.7731,62.4831 7.14279,25.27064 7.84008,58.08139 1.75052,82.37072 -4.54777,18.13966 -12.9318,35.40878 -24.27192,49.99444 -2.41751,3.10939 -8.5392,9.97328 -13.60378,15.25309 -11.15944,11.63369 -12.9176,14.73389 -10.66146,18.79962 2.58863,4.6649 8.10245,5.45994 14.43993,2.0821 z m -29.37396,-18.507 c 3.6524,-1.86331 5.95678,-6.16781 5.49502,-10.2645 -0.41047,-3.6417 -2.12514,-6.22193 -5.42727,-8.16695 -2.31994,-1.36649 -3.59852,-1.38566 -92.42014,-1.38566 -88.82161,0 -90.1002,0.0192 -92.42014,1.38566 -3.40852,2.00768 -5.07585,4.61501 -5.39436,8.43554 -0.34666,4.15804 1.76091,8.13636 5.31114,10.02549 2.31506,1.23188 6.10292,1.28457 92.34695,1.28457 86.93441,0 90.01874,-0.0438 92.5088,-1.31415 z M 243.11813,322.61342 c 0.17697,-1.24174 -0.65392,-1.90835 -4.96064,-3.97979 -6.21475,-2.98918 -10.01616,-6.95613 -13.36564,-13.94769 -4.30148,-8.97871 -5.51105,-19.50694 -3.12273,-27.18062 1.72595,-5.5455 4.63412,-9.57106 10.97884,-15.19715 14.69954,-13.03464 16.69253,-15.79231 17.35216,-24.0099 0.42238,-5.26192 -0.55653,-8.66975 -3.43077,-11.94332 -3.85265,-4.38793 -0.52492,-6.02453 5.03412,-2.47581 4.31979,2.75761 8.78158,7.84888 10.86324,12.39583 1.94725,4.25335 2.24192,8.4244 1.13897,16.12232 -1.30728,9.1241 1.16821,15.14733 6.85476,16.67855 5.78728,1.55835 12.55979,-1.39894 13.98115,-6.10503 0.26588,-0.88031 -0.14986,-3.80469 -0.96141,-6.76281 -2.3008,-8.38648 -1.87929,-8.99492 3.07051,-4.43235 6.15575,5.67416 9.83191,16.71483 9.17778,27.56373 -0.6141,10.1851 -4.55548,17.88856 -14.42538,28.19458 -3.01852,3.15189 -5.48821,6.19893 -5.48821,6.77121 0,1.61066 1.98655,3.21797 3.97723,3.21797 2.2934,0 8.30998,-3.3724 13.85232,-7.76447 9.31397,-7.38091 17.70404,-18.38751 21.54394,-28.26259 3.49636,-8.99162 3.93098,-12.01819 3.88018,-27.0203 -0.0443,-13.07029 -0.19447,-14.75551 -1.88341,-21.13126 -1.02505,-3.86956 -3.39092,-10.03095 -5.35889,-13.95611 -6.48766,-12.93972 -22.6784,-30.03848 -28.44333,-30.03848 -2.789,0 -2.65504,1.48653 0.74089,8.22134 6.27218,12.43896 5.1002,19.54013 -3.41339,20.68205 -2.47774,0.33233 -3.03552,0.11549 -5.15516,-2.00415 -2.90491,-2.90491 -3.97351,-6.29476 -6.62405,-21.01292 -2.71918,-15.09926 -3.83159,-19.17121 -7.00239,-25.63192 -5.19129,-10.57759 -12.90856,-18.09625 -23.87307,-23.25866 -6.792,-3.19788 -12.79744,-4.80088 -17.98588,-4.80088 -7.28415,0 -8.74064,2.62415 -3.46943,6.25083 9.37221,6.44826 14.73274,19.20941 12.93274,30.78744 -1.48557,9.5556 -5.43729,17.83389 -18.69945,39.17283 -17.40329,28.00203 -20.87685,37.4282 -19.45811,52.80339 2.0776,22.51547 17.49942,41.77242 41.13751,51.36769 7.00128,2.84199 10.26766,3.05342 10.605,0.68645 z"
     id="path3428"
     inkscape:connector-curvature="0" /></svg>
