<svg width="3942" height="262.374" viewBox="0 0 3942 262.374" xmlns="http://www.w3.org/2000/svg" xmlns:svg="http://www.w3.org/2000/svg"><g id="svgGroup" stroke-linecap="round" fill-rule="evenodd" font-size="9pt" stroke="#000" stroke-width="0.25mm" fill="none" style="stroke:#000;stroke-width:0.25mm;fill:none"><path d="M 954.8 170.351 L 918.8 256.351 L 866 256.351 L 860 170.351 L 858 170.351 L 838.8 256.351 L 770.4 256.351 L 818.8 44.751 L 905.6 44.751 L 911.6 143.951 L 913.2 143.951 L 953.6 44.751 L 982 44.751 L 1040.4 44.751 L 1154.4 44.751 L 1151.6 62.751 L 1039.66 50.87 L 1035.754 83.151 L 1148 83.151 L 1144.8 101.151 L 1034.987 89.496 L 1031.109 121.551 L 1141.2 121.551 L 1138 139.551 L 1030.314 128.122 L 1026.463 159.951 L 1134.4 159.951 L 1131.2 177.951 L 1025.64 166.748 L 1021.817 198.351 L 1129.6 198.351 L 1129.6 206.351 Q 1129.6 213.151 1130 216.351 L 1021.038 204.787 L 1017.123 237.151 L 1133.6 237.151 Q 1138 248.351 1145.2 255.151 L 1016.596 241.502 L 1014.8 256.351 L 946 256.351 L 956.8 170.351 L 954.8 170.351 Z M 3000.4 170.351 L 2964.4 256.351 L 2911.6 256.351 L 2905.6 170.351 L 2903.6 170.351 L 2884.4 256.351 L 2816 256.351 L 2864.4 44.751 L 2951.2 44.751 L 2957.2 143.951 L 2958.8 143.951 L 2999.2 44.751 L 3027.6 44.751 L 3086 44.751 L 3200 44.751 L 3197.2 62.751 L 3085.26 50.87 L 3081.354 83.151 L 3193.6 83.151 L 3190.4 101.151 L 3080.587 89.496 L 3076.709 121.551 L 3186.8 121.551 L 3183.6 139.551 L 3075.914 128.122 L 3072.063 159.951 L 3180 159.951 L 3176.8 177.951 L 3071.24 166.748 L 3067.417 198.351 L 3173.2 198.351 L 3170 216.351 L 3066.567 205.373 L 3062.723 237.151 L 3166.4 237.151 L 3163.2 255.151 L 3061.847 244.394 L 3060.4 256.351 L 2991.6 256.351 L 2994.006 237.194 L 2993.6 237.151 L 2994.011 237.151 L 3002.4 170.351 L 3000.4 170.351 Z M 151.6 251.951 L 174 185.951 Q 207.6 195.151 235.4 195.151 Q 263.2 195.151 280.8 192.751 L 284 172.751 L 250.8 169.551 Q 212.8 165.951 197 152.351 Q 181.2 138.751 181.2 113.951 Q 181.2 103.151 183.6 89.951 Q 192.8 38.751 217.2 19.551 Q 241.6 0.351 292.2 0.351 Q 342.8 0.351 381.6 10.351 L 370.42 44.751 L 538 44.751 L 530.8 61.951 L 370.327 45.038 L 360.8 74.351 Q 326 68.351 305 68.351 Q 284 68.351 268.8 70.351 L 265.6 89.951 L 292.4 92.751 Q 333.2 97.151 350.4 112.151 A 50.657 50.657 0 0 1 358.747 121.551 L 506 121.551 L 498.4 139.151 L 360.518 124.318 A 50.657 50.657 0 0 1 367.6 152.351 A 142.656 142.656 0 0 1 367.308 159.951 L 489.6 159.951 L 482.4 177.551 L 366.874 165.153 A 142.656 142.656 0 0 1 359.408 198.351 L 473.6 198.351 L 466 215.951 L 357.16 204.271 A 142.656 142.656 0 0 1 356.8 205.151 Q 350.8 219.151 344.2 228.551 A 60.219 60.219 0 0 1 336.804 237.151 L 457.2 237.151 L 449.6 254.751 L 331.055 242.029 A 60.219 60.219 0 0 1 327.4 244.551 Q 317.2 251.151 308.8 254.551 Q 300.4 257.951 287.2 259.551 Q 268.8 262.351 241.6 262.351 Q 192 262.351 151.6 251.951 Z M 2601.6 200.351 L 2621.6 200.351 Q 2632.4 200.351 2636.6 197.751 Q 2640.8 195.151 2642.4 185.151 L 2667.6 44.751 L 2679.2 44.751 L 2734.8 44.751 L 2851.2 44.751 L 2846.8 62.751 L 2733.777 50.612 L 2728.099 83.151 L 2842 83.151 L 2838 101.151 L 2727.033 89.262 L 2721.399 121.551 L 2833.2 121.551 L 2828.8 139.551 L 2720.286 127.924 L 2714.698 159.951 L 2824.8 159.951 L 2820.8 177.951 L 2713.753 166.563 A 140.027 140.027 0 0 1 2706.633 198.351 L 2816 198.351 L 2811.6 216.351 L 2704.145 204.92 A 140.027 140.027 0 0 1 2685.686 237.151 L 2806.8 237.151 L 2802.8 255.151 L 2680.765 242.199 A 103.85 103.85 0 0 1 2610 261.151 Q 2568.8 261.151 2552.4 248.951 Q 2536 236.751 2536 206.351 Q 2536 189.551 2540.4 163.951 L 2561.6 44.751 L 2628.8 44.751 L 2601.6 200.351 Z M 1207.2 200.351 L 1227.2 200.351 Q 1238 200.351 1242.2 197.751 Q 1246.4 195.151 1248 185.151 L 1252.521 159.964 L 1252.4 159.951 L 1252.523 159.951 L 1259.411 121.573 L 1259.2 121.551 L 1259.415 121.551 L 1266.302 83.183 L 1266 83.151 L 1266.308 83.151 L 1273.193 44.793 L 1272.8 44.751 L 1273.2 44.751 L 1340.4 44.751 L 1445.2 44.751 L 1442.4 62.751 L 1339.171 51.795 L 1333.699 83.151 L 1438.8 83.151 L 1435.6 101.151 L 1332.468 90.205 L 1326.999 121.551 L 1432 121.551 L 1428.8 139.551 L 1325.766 128.616 L 1320.298 159.951 L 1425.2 159.951 L 1422 177.951 L 1319.301 167.051 A 140.027 140.027 0 0 1 1312.233 198.351 L 1418.4 198.351 L 1415.2 216.351 L 1309.652 205.149 A 140.027 140.027 0 0 1 1291.286 237.151 L 1411.6 237.151 L 1408.4 255.151 L 1286.365 242.199 A 103.85 103.85 0 0 1 1215.6 261.151 Q 1174.4 261.151 1158 248.951 Q 1141.6 236.751 1141.6 206.351 Q 1141.6 189.551 1146 163.951 L 1167.2 44.751 L 1234.4 44.751 L 1207.2 200.351 Z M 666 256.351 L 596 256.351 L 595.091 237.946 L 587.6 237.151 L 595.052 237.151 L 594.4 223.951 L 544 223.951 L 531.6 256.351 L 462.4 256.351 L 551.2 44.751 L 633.6 44.751 L 650.4 44.751 L 805.6 44.751 L 801.2 62.751 L 650.534 46.57 L 653.231 83.151 L 796.4 83.151 L 792.4 101.151 L 653.461 86.265 L 656.062 121.551 L 787.6 121.551 L 783.2 139.551 L 656.387 125.964 L 658.893 159.951 L 779.2 159.951 L 775.2 177.951 L 659.311 165.622 L 661.724 198.351 L 770.4 198.351 L 766 216.351 L 662.237 205.312 L 664.584 237.151 L 761.2 237.151 L 757.2 255.151 L 665.192 245.386 L 666 256.351 Z M 2438.8 197.551 L 2438.659 198.351 L 2524 198.351 L 2524 206.351 Q 2524 213.151 2524.4 216.351 L 2437.113 207.087 L 2431.796 237.151 L 2528 237.151 Q 2532.4 248.351 2539.6 255.151 L 2430.657 243.589 L 2428.4 256.351 L 2298.4 256.351 L 2335.2 44.751 L 2376.4 44.751 L 2405.6 44.751 L 2548.8 44.751 L 2546 62.751 L 2405.066 47.793 L 2398.865 83.151 L 2542.4 83.151 L 2539.2 101.151 L 2398.33 86.2 L 2392.13 121.551 L 2535.6 121.551 L 2532.4 139.551 L 2391.594 124.607 L 2385.395 159.951 L 2528.8 159.951 L 2525.6 177.951 L 2384.858 163.014 L 2378.8 197.551 L 2438.8 197.551 Z M 1570.4 131.951 L 1565.442 159.951 L 1687.6 159.951 L 1684.4 177.951 L 1564.507 165.226 L 1563.6 170.351 L 1504 170.351 L 1499.2 197.551 L 1573.2 197.551 L 1573.059 198.351 L 1680.8 198.351 L 1677.6 216.351 L 1571.86 205.128 L 1566.196 237.151 L 1674 237.151 L 1670.8 255.151 L 1564.998 243.922 L 1562.8 256.351 L 1421.6 256.351 L 1458.4 44.751 L 1535.2 44.751 L 1599.2 44.751 L 1707.6 44.751 L 1704.8 62.751 L 1597.14 51.325 L 1587.168 83.151 L 1701.2 83.151 L 1698 101.151 L 1585.277 89.187 L 1580.4 104.751 L 1515.2 104.751 L 1510.4 131.951 L 1570.4 131.951 Z M 3569.2 206.751 L 3530.4 206.751 L 3521.6 256.351 L 3454.4 256.351 L 3491.2 44.751 L 3583.6 44.751 L 3592.8 44.751 A 49.9 49.9 0 0 1 3609.634 44.751 L 3756 44.751 L 3753.2 62.751 L 3622.709 48.902 A 49.9 49.9 0 0 1 3649.937 83.151 L 3749.6 83.151 L 3746.4 101.151 L 3651.032 91.029 A 49.9 49.9 0 0 1 3650.8 99.551 A 138.59 138.59 0 0 1 3649.281 121.551 L 3742.8 121.551 L 3739.6 139.551 L 3647.789 129.807 A 138.59 138.59 0 0 1 3643.6 145.151 A 134.828 134.828 0 0 1 3637.899 159.951 L 3736 159.951 L 3732.8 177.951 L 3634.188 167.485 A 134.828 134.828 0 0 1 3628 177.951 Q 3619.6 189.951 3604.2 198.351 L 3731.2 198.351 L 3731.2 206.351 Q 3731.2 213.151 3731.6 216.351 L 3596.229 201.984 A 71.893 71.893 0 0 1 3569.2 206.751 Z M 3291.2 206.751 L 3252.4 206.751 L 3243.6 256.351 L 3176.4 256.351 L 3213.2 44.751 L 3305.6 44.751 L 3314.8 44.751 A 49.9 49.9 0 0 1 3331.634 44.751 L 3478 44.751 L 3475.2 62.751 L 3344.709 48.902 A 49.9 49.9 0 0 1 3371.937 83.151 L 3471.6 83.151 L 3468.4 101.151 L 3373.032 91.029 A 49.9 49.9 0 0 1 3372.8 99.551 A 138.59 138.59 0 0 1 3371.281 121.551 L 3464.8 121.551 L 3461.6 139.551 L 3369.789 129.807 A 138.59 138.59 0 0 1 3365.6 145.151 A 134.828 134.828 0 0 1 3359.899 159.951 L 3458 159.951 L 3454.8 177.951 L 3356.188 167.485 A 134.828 134.828 0 0 1 3350 177.951 Q 3341.6 189.951 3326.2 198.351 L 3451.2 198.351 L 3448 216.351 L 3316.989 202.446 A 71.893 71.893 0 0 1 3291.2 206.751 Z M 2126.8 195.951 L 2077.2 195.951 L 2066.8 256.351 L 1990.8 256.351 L 2034.8 6.351 L 2154.8 6.351 A 58.078 58.078 0 0 1 2219.998 44.751 L 2322 44.751 L 2319.2 62.751 L 2222.047 52.44 A 58.078 58.078 0 0 1 2222.8 69.551 A 164.565 164.565 0 0 1 2222.423 83.151 L 2315.6 83.151 L 2312.4 101.151 L 2221.63 91.517 A 164.565 164.565 0 0 1 2215.115 121.551 L 2308.8 121.551 L 2305.6 139.551 L 2212.374 129.657 A 151.587 151.587 0 0 1 2197.253 159.951 L 2302 159.951 L 2298.8 177.951 L 2192.224 166.64 A 82.97 82.97 0 0 1 2167.8 186.151 Q 2150 195.951 2126.8 195.951 Z M 3808.8 200.351 L 3828.8 200.351 Q 3839.6 200.351 3843.8 197.751 Q 3848 195.151 3849.6 185.151 L 3874.8 44.751 L 3942 44.751 L 3921.2 163.951 Q 3911.6 219.951 3890.2 240.551 Q 3868.8 261.151 3817.2 261.151 Q 3776 261.151 3759.6 248.951 Q 3743.2 236.751 3743.2 206.351 Q 3743.2 189.551 3747.6 163.951 L 3768.8 44.751 L 3836 44.751 L 3808.8 200.351 Z M 1824.4 197.551 L 1814 256.351 L 1684 256.351 L 1720.8 44.751 L 1791.2 44.751 L 1764.4 197.551 L 1824.4 197.551 Z M 225.6 177.951 L 14 159.951 L 186.4 159.951 Q 199.6 172.751 225.6 177.951 Z M 1995.6 159.951 L 1992.4 177.951 L 1822.8 159.951 L 1995.6 159.951 Z M 2295.2 198.351 L 2292 216.351 L 2122.4 198.351 L 2295.2 198.351 Z M 1988.8 198.351 L 1985.6 216.351 L 1816 198.351 L 1988.8 198.351 Z M 1694.4 121.551 L 1691.2 139.551 L 1521.6 121.551 L 1694.4 121.551 Z M 1982 237.151 L 1978.8 255.151 L 1809.2 237.151 L 1982 237.151 Z M 2288.4 237.151 L 2285.2 255.151 L 2115.6 237.151 L 2288.4 237.151 Z M 3444.4 237.151 L 3441.2 255.151 L 3271.6 237.151 L 3444.4 237.151 Z M 169.6 101.151 L 0 83.151 L 172.4 83.151 Q 170.4 91.151 169.6 101.151 Z M 2015.6 44.751 L 2012.4 62.751 L 1843.2 44.751 L 2015.6 44.751 Z M 2022.4 6.351 L 2019.2 24.351 L 1850 6.351 L 2022.4 6.351 Z M 2008.8 83.151 L 2005.6 101.151 L 1836.4 83.151 L 2008.8 83.151 Z M 2002 121.551 L 1998.8 139.551 L 1829.6 121.551 L 2002 121.551 Z M 11.2 44.751 L 183.2 44.751 L 177.2 62.351 L 11.2 44.751 Z M 3.6 121.551 L 169.6 121.551 Q 170.4 132.351 172.8 139.551 L 3.6 121.551 Z M 522 83.151 L 514.8 100.751 L 351.2 83.151 L 522 83.151 Z M 41.2 6.351 L 213.2 6.351 Q 204 12.351 195.6 22.751 L 41.2 6.351 Z M 3746.8 255.151 L 3577.2 237.151 L 3735.2 237.151 Q 3739.6 248.351 3746.8 255.151 Z M 150.8 215.951 L 7.2 198.351 L 156.8 198.351 L 150.8 215.951 Z M 138 254.751 L 0.4 237.151 L 144 237.151 L 138 254.751 Z M 2088.4 131.951 L 2106 131.951 Q 2119.6 131.951 2126.6 128.951 Q 2133.6 125.951 2135.6 115.151 Q 2140.8 85.551 2140.8 82.751 Q 2140.8 75.151 2134.8 72.751 Q 2128.8 70.351 2116.8 70.351 L 2099.2 70.351 L 2088.4 131.951 Z M 3573.2 141.151 L 3576.536 122.245 L 3570 121.551 L 3576.659 121.551 L 3578 113.951 Q 3578 113.551 3578.4 111.551 Q 3578.4 103.151 3561.2 103.151 L 3548.4 103.151 L 3540 152.751 L 3552.4 152.751 Q 3561.6 152.751 3566.8 150.551 Q 3572 148.351 3573.2 141.151 Z M 3295.2 141.151 L 3298.536 122.245 L 3292 121.551 L 3298.659 121.551 L 3300 113.951 Q 3300 113.551 3300.4 111.551 Q 3300.4 103.151 3283.2 103.151 L 3270.4 103.151 L 3262 152.751 L 3274.4 152.751 Q 3283.6 152.751 3288.8 150.551 Q 3294 148.351 3295.2 141.151 Z M 565.2 166.751 L 594.4 166.751 L 594.4 105.951 L 588.8 105.951 L 565.2 166.751 Z" vector-effect="non-scaling-stroke"/></g></svg>