<svg width="1075" height="1075" viewBox="0 0 1075 1075" fill="none" xmlns="http://www.w3.org/2000/svg">
<circle cx="537.5" cy="537.5" r="533.5" fill="white" stroke="black" stroke-width="4"/>
<path d="M206.754 292.273L223.797 267.679L223.777 267.57L230.841 272.465C232.724 273.77 235.306 275.623 238.586 278.022C240.269 279.252 241.622 280.316 242.646 281.216C243.657 282.043 244.87 283.264 246.286 284.879C249.825 288.916 252.289 293.728 253.676 299.315C255.281 305.687 254.685 312.719 251.888 320.413C250.443 324.418 248.178 328.646 245.093 333.098L245.004 333.227C240.554 339.648 235.83 344.453 230.831 347.643C225.82 350.76 220.387 352.382 214.534 352.508C208.911 352.666 202.786 351.4 196.16 348.709C189.563 345.976 182.326 341.88 174.449 336.421C165.63 330.31 158.866 324.481 154.154 318.935C148.156 311.864 144.928 304.589 144.47 297.111C143.891 288.346 146.909 279.189 153.524 269.643L153.613 269.515C158.775 262.066 164.485 256.707 170.741 253.439C176.079 250.675 181.793 249.47 187.884 249.825C192.848 250.16 198.109 251.62 203.668 254.205L199.396 260.37C194.476 258.417 190.038 257.37 186.082 257.226C182.113 257.01 178.469 257.559 175.151 258.871C172.124 260.132 169.316 261.988 166.729 264.441C164.1 266.864 161.554 269.853 159.091 273.406L159.047 273.47C157.089 276.295 155.487 279.019 154.24 281.64C152.981 284.189 152.11 286.818 151.628 289.525C150.591 295.777 151.909 302.013 155.582 308.234C159.887 315.463 167.541 322.889 178.543 330.513C189.459 338.078 198.918 342.763 206.918 344.569C214.214 346.203 220.568 345.537 225.982 342.571C230.68 339.998 235.18 335.607 239.482 329.4L239.571 329.271C242.775 324.648 245.046 320.044 246.386 315.459C248.111 309.494 248.031 303.895 246.146 298.659C243.889 292.406 238.957 286.676 231.351 281.468L226.041 277.883L213.047 296.633L206.754 292.273Z" fill="black"/>
<path d="M261.691 196.553C262.938 195.91 263.993 195.405 264.858 195.04L268.451 201.068C266.689 201.687 265.089 202.406 263.651 203.224C262.177 204.004 260.516 205.236 258.669 206.92C256.629 208.78 254.931 211.209 253.576 214.206C252.186 217.165 251.285 220.312 250.873 223.648C250.457 227.058 250.584 230.29 251.254 233.344C251.889 236.359 253.084 238.829 254.839 240.754L289.157 278.396L283.903 283.185L231.794 226.03L235.995 220.086L245.206 230.189C244.822 228.143 244.725 225.835 244.918 223.263C245.114 220.617 245.622 218.005 246.441 215.425C247.306 212.663 248.459 210.062 249.899 207.621C251.342 205.107 253.045 202.955 255.008 201.166C256.894 199.446 259.122 197.909 261.691 196.553Z" fill="black"/>
<path d="M357.942 175.342L358.751 178.047L311.034 209.358C317.593 220.242 324.381 226.763 331.397 228.92C334.606 229.905 337.897 230.019 341.272 229.262C344.647 228.506 348.186 227.011 351.888 224.78C355.948 222.334 359.889 218.985 363.713 214.735C366.547 211.567 369.078 208.4 371.305 205.234L376.176 209.231C374.547 212.28 372.022 215.657 368.599 219.361C364.455 223.987 360.063 227.698 355.423 230.494C350.026 233.747 345.037 235.811 340.456 236.687C335.92 237.535 331.641 237.195 327.618 235.667C323.596 234.138 319.651 231.377 315.785 227.383C311.892 223.344 307.915 217.957 303.856 211.221C297.027 199.89 294.466 189.94 296.174 181.371C297.837 173.132 303.352 166.19 312.72 160.544C320.705 155.732 327.967 153.606 334.507 154.164C342.628 154.926 349.336 159.7 354.632 168.488C355.842 170.496 356.945 172.78 357.942 175.342ZM303.369 181.504C302.103 187.375 303.591 194.688 307.833 203.442L350.292 175.665C349.87 174.763 349.202 173.554 348.288 172.038C345.358 167.175 342.065 163.931 338.408 162.303C334.609 160.64 330.424 160.456 325.853 161.751C322.952 162.588 319.471 164.229 315.412 166.676C308.676 170.735 304.662 175.678 303.369 181.504Z" fill="black"/>
<path d="M440.998 144.816L441.2 147.632L387.819 167.826C391.857 179.876 397.066 187.716 403.445 191.346C406.363 193.005 409.552 193.831 413.01 193.826C416.469 193.82 420.248 193.131 424.347 191.757C428.841 190.251 433.416 187.84 438.072 184.522C441.526 182.046 444.685 179.504 447.546 176.897L451.433 181.857C449.181 184.479 445.982 187.227 441.836 190.099C436.785 193.714 431.692 196.382 426.556 198.103C420.58 200.106 415.262 201.036 410.6 200.895C405.989 200.738 401.885 199.476 398.291 197.11C394.697 194.744 391.447 191.192 388.54 186.453C385.618 181.665 382.907 175.542 380.408 168.085C376.205 155.542 375.867 145.273 379.396 137.279C382.809 129.599 389.701 124.021 400.072 120.546C408.912 117.584 416.463 117.086 422.724 119.052C430.486 121.56 435.997 127.678 439.257 137.407C440.001 139.629 440.582 142.099 440.998 144.816ZM386.39 138.973C383.879 144.429 383.742 151.89 385.981 161.357L433.461 143.469C433.245 142.497 432.856 141.172 432.293 139.493C430.489 134.11 427.98 130.227 424.764 127.844C421.417 125.395 417.372 124.306 412.629 124.578C409.615 124.763 405.861 125.609 401.367 127.115C393.91 129.614 388.918 133.567 386.39 138.973Z" fill="black"/>
<path d="M530.43 117.514C531.476 121.401 532.212 125.966 532.636 131.209L534.163 150.053C534.577 154.514 535.053 158.133 535.591 160.911C536.13 163.689 536.856 165.877 537.769 167.475C538.635 169.13 539.696 170.298 540.953 170.98C542.258 171.605 543.871 171.841 545.791 171.685C548.231 171.487 550.222 170.908 551.764 169.947C553.354 168.93 554.813 167.584 556.14 165.909L559.257 170.516C557.698 173.203 555.309 175.329 552.092 176.896C550.486 177.706 548.436 178.211 545.945 178.413C541.013 178.813 537.067 177.513 534.107 174.513C531.716 172.094 529.962 168.5 528.844 163.731C528.12 160.602 527.544 156.39 527.115 151.095L525.544 131.705C525.174 127.137 524.545 123.242 523.657 120.022C522.765 116.75 521.528 114.055 519.945 111.936C518.25 109.722 516.085 108.147 513.448 107.211C510.864 106.271 507.677 105.954 503.887 106.261C499.838 106.589 496.03 107.629 492.461 109.381C489.595 110.763 486.842 112.58 484.203 114.832C481.468 117.196 479.291 119.671 477.672 122.258L482.479 181.595L475.392 182.169L469.147 105.078L476.114 103.025L477.016 114.16C479.011 111.699 481.239 109.533 483.7 107.661C486.157 105.738 488.994 103.993 492.212 102.426C495.325 100.867 498.932 99.9218 503.033 99.5896C508.588 99.1396 513.198 99.6022 516.863 100.977C520.579 102.349 523.578 104.535 525.859 107.538C527.907 110.246 529.431 113.571 530.43 117.514Z" fill="black"/>
<path d="M627.332 174.373C627.456 171.164 628.007 166.949 628.985 161.727L632.566 142.606C633.41 138.101 633.827 134.179 633.816 130.839C633.816 127.447 633.33 124.521 632.36 122.061C631.307 119.48 629.632 117.391 627.334 115.795C625.088 114.208 622.096 113.065 618.359 112.365C614.366 111.617 610.418 111.62 606.515 112.372C603.386 112.952 600.252 113.981 597.114 115.46C593.854 117.022 591.103 118.838 588.86 120.909L578.055 179.452L571.068 178.143L580.991 125.158C581.783 120.643 582.99 114.06 584.61 105.409L590.837 72.1585L598.189 71.9458L590.51 112.952C593.03 111.092 595.698 109.578 598.514 108.41C601.39 107.2 604.586 106.262 608.102 105.596C611.516 104.91 615.245 104.946 619.289 105.704C624.767 106.729 629.093 108.387 632.267 110.678C635.492 112.977 637.811 115.876 639.223 119.372C640.487 122.523 641.083 126.132 641.01 130.199C640.998 134.224 640.508 138.821 639.54 143.992L636.39 160.809C635.489 165.621 634.914 169.541 634.665 172.567C634.416 175.594 634.482 178.07 634.863 179.996C635.235 181.974 635.938 183.456 636.971 184.445C638.056 185.443 639.597 186.129 641.593 186.503C643.897 186.934 646.319 186.593 648.859 185.479C650.302 184.848 652.066 183.775 654.152 182.258L655.948 187.522C654.585 188.856 653.133 189.962 651.591 190.839C650.1 191.726 648.408 192.415 646.514 192.909C644.508 193.434 642.327 193.476 639.973 193.035C635.109 192.124 631.644 189.832 629.576 186.16C627.905 183.197 627.157 179.269 627.332 174.373Z" fill="black"/>
<path d="M735.286 184.127L733.513 186.324L680.71 164.662C675.439 176.226 673.898 185.511 676.085 192.518C677.086 195.721 678.852 198.501 681.384 200.857C683.917 203.213 687.15 205.288 691.083 207.081C695.396 209.046 700.386 210.405 706.053 211.156C710.269 211.704 714.311 212.001 718.182 212.048L717.639 218.326C714.203 218.706 709.99 218.531 704.999 217.802C698.841 216.998 693.297 215.473 688.368 213.227C682.633 210.613 678.11 207.665 674.799 204.381C671.535 201.119 669.396 197.397 668.383 193.215C667.37 189.033 667.418 184.218 668.527 178.771C669.658 173.276 671.854 166.95 675.116 159.794C680.602 147.756 687.362 140.019 695.396 136.583C703.132 133.298 711.977 133.923 721.929 138.459C730.413 142.326 736.272 147.114 739.508 152.825C743.47 159.954 743.324 168.187 739.069 177.523C738.097 179.656 736.836 181.857 735.286 184.127ZM699.353 142.594C693.795 144.869 688.604 150.23 683.781 158.678L730.695 177.999C731.201 177.142 731.82 175.908 732.555 174.297C734.909 169.131 735.724 164.58 735 160.643C734.224 156.569 732.01 153.013 728.357 149.975C726.027 148.054 722.706 146.111 718.393 144.146C711.237 140.884 704.89 140.367 699.353 142.594Z" fill="black"/>
<path d="M821.964 203.111L826.588 208.733L796.748 246.69C793.723 250.539 791.399 253.747 789.778 256.315C788.157 258.883 787.069 261.109 786.516 262.993C785.93 264.917 785.867 266.557 786.326 267.911C786.826 269.298 787.874 270.619 789.471 271.874C791.436 273.42 793.699 274.503 796.258 275.123C798.859 275.776 801.415 276.064 803.928 275.985L803.084 281.483C799.273 281.865 795.973 281.723 793.185 281.055C790.398 280.387 787.673 279.007 785.012 276.915C780.999 273.761 778.983 270.089 778.964 265.9C778.877 262.386 780.08 258.496 782.573 254.229C779.449 255.085 776.819 255.734 774.683 256.175C772.58 256.575 770.414 256.76 768.185 256.73C762.287 256.732 756.902 254.817 752.03 250.987C748.017 247.832 745.156 244.225 743.445 240.164C741.808 236.094 741.21 231.715 741.65 227.026C742.02 222.679 743.263 218.191 745.379 213.56C747.495 208.93 750.275 204.425 753.719 200.043C757.968 194.638 762.751 190.283 768.067 186.975C774.039 183.256 779.969 181.359 785.857 181.285C792.559 181.187 798.838 183.44 804.693 188.043C807.723 190.425 810.456 193.269 812.892 196.575C815.328 199.881 817.29 203.411 818.778 207.164L821.964 203.111ZM771.412 250.224C776.967 250.152 782.455 248.902 787.876 246.472L814.287 212.876C813.001 208.95 811.193 205.309 808.862 201.953C806.795 198.937 803.919 195.98 800.233 193.083C795.525 189.381 790.358 187.737 784.732 188.151C779.993 188.533 775.194 190.425 770.334 193.826C766.258 196.65 762.563 200.171 759.247 204.389C756.286 208.156 753.882 211.93 752.035 215.712C750.229 219.526 749.093 223.205 748.627 226.747C748.146 230.477 748.448 233.927 749.532 237.098C750.69 240.261 752.763 243.017 755.752 245.367C759.97 248.682 765.19 250.301 771.412 250.224Z" fill="black"/>
<path d="M893.163 278.956C893.741 280.234 894.191 281.314 894.512 282.196L888.308 285.476C887.78 283.686 887.144 282.051 886.4 280.572C885.696 279.061 884.551 277.339 882.963 275.408C881.21 273.276 878.871 271.457 875.947 269.95C873.063 268.411 869.965 267.35 866.655 266.768C863.271 266.179 860.037 266.141 856.953 266.654C853.908 267.134 851.381 268.201 849.369 269.855L810.023 302.205L805.508 296.714L865.251 247.593L870.973 252.092L860.412 260.775C862.475 260.495 864.786 260.517 867.344 260.84C869.976 261.171 872.559 261.812 875.094 262.762C877.808 263.767 880.347 265.051 882.711 266.614C885.148 268.184 887.21 269.994 888.897 272.046C890.518 274.018 891.94 276.321 893.163 278.956Z" fill="black"/>
<path d="M925.28 332.422L918.861 334.768L908.398 317.085L871.888 338.687C867.719 341.154 864.415 343.291 861.974 345.098C859.533 346.905 857.714 348.587 856.517 350.143C855.274 351.725 854.622 353.231 854.56 354.659C854.524 356.133 855.023 357.744 856.057 359.492C857.33 361.644 859.048 363.472 861.209 364.977C863.397 366.527 865.676 367.72 868.047 368.556L865.271 373.376C863.265 372.747 861.554 372.156 860.137 371.603C858.791 371.067 857.554 370.408 856.424 369.624C853.996 367.974 851.919 365.693 850.195 362.779C847.649 358.476 847.076 354.337 848.476 350.361C849.667 347.055 852.116 343.881 855.823 340.84C858.248 338.8 861.768 336.414 866.385 333.683L904.777 310.966L899.566 302.158L905.348 298.737L910.56 307.545L926.696 297.997L930.586 303.956L914.18 313.663L925.28 332.422Z" fill="black"/>
<path d="M250.606 768.365C248.468 772.857 245.175 777.213 240.726 781.431L236.565 775.191C243.498 767.751 246.921 760.398 246.834 753.132C246.776 749.853 246.082 746.56 244.753 743.252C243.467 739.915 241.625 736.449 239.227 732.852C237.32 729.992 235.376 727.5 233.397 725.377C231.49 723.268 229.367 721.492 227.026 720.047C221.595 716.783 215.311 715.715 208.175 716.842C199.869 718.186 190.148 722.571 179.011 729.997C167.961 737.366 160.118 744.473 155.482 751.321C151.365 757.446 149.647 763.6 150.326 769.783C150.63 772.585 151.417 775.409 152.689 778.255C153.96 781.1 155.636 784.083 157.717 787.203C162.369 794.18 167.541 798.932 173.232 801.459C180.224 804.622 188.48 804.375 197.999 800.72L202.203 807.025C199.328 808.065 196.895 808.874 194.901 809.452C192.98 810.045 190.842 810.5 188.488 810.818C182.132 811.613 176.288 810.783 170.958 808.328C163.981 805.093 157.675 799.25 152.04 790.8C147.706 784.3 144.975 778.14 143.848 772.318C142.793 766.511 143.262 760.878 145.255 755.417C147.219 750.101 150.671 744.857 155.61 739.685C160.579 734.557 167.05 729.334 175.024 724.017C183.993 718.036 191.924 713.875 198.814 711.534C207.51 708.616 215.462 708.29 222.67 710.557C230.933 713.185 238.344 719.418 244.903 729.254C249.989 736.881 252.893 744.147 253.616 751.052C254.209 757.104 253.205 762.875 250.606 768.365Z" fill="black"/>
<path d="M250.427 797.244C258.232 797.047 265.909 800.536 273.459 807.713C277.272 811.338 280.164 814.985 282.136 818.656C284.921 823.891 285.762 829.469 284.659 835.392C283.331 842.609 278.899 850.181 271.364 858.109L266.95 862.752C257.763 872.415 248.789 877.358 240.026 877.58C232.148 877.779 224.433 874.291 216.884 867.114C213.071 863.489 210.198 859.859 208.264 856.224C205.479 850.99 204.619 845.394 205.684 839.435C207.011 832.218 211.443 824.645 218.979 816.718L223.393 812.075C232.579 802.412 241.591 797.468 250.427 797.244ZM239.098 808.141C235.253 810.522 230.944 814.223 226.172 819.244C222.296 823.321 219.206 827.138 216.901 830.696C214.671 834.253 213.267 837.733 212.69 841.137C212.045 844.763 212.411 848.309 213.788 851.774C215.238 855.237 217.832 858.745 221.57 862.298C229.119 869.475 236.735 871.971 244.416 869.788C247.671 868.858 250.889 867.174 254.069 864.736C257.287 862.333 260.654 859.282 264.171 855.583C268.047 851.506 271.1 847.69 273.331 844.133C275.635 840.575 277.076 837.094 277.653 833.69C278.298 830.063 277.895 826.519 276.445 823.055C275.067 819.59 272.51 816.082 268.773 812.529C263.526 807.541 258.318 804.818 253.149 804.359C248.497 803.961 243.813 805.222 239.098 808.141Z" fill="black"/>
<path d="M284.143 868.828L287.435 863.793L324.381 887.947L321.089 892.982L284.143 868.828Z" fill="black"/>
<path d="M362.26 880.071C369.488 877.121 377.904 877.664 387.507 881.701C392.356 883.739 396.353 886.126 399.498 888.86C403.957 892.768 406.72 897.687 407.787 903.616C409.103 910.835 407.641 919.487 403.403 929.57L400.92 935.475C395.754 947.767 389.113 955.569 380.997 958.88C373.7 961.858 365.25 961.329 355.647 957.293C350.798 955.254 346.825 952.878 343.729 950.164C339.27 946.256 336.483 941.327 335.367 935.378C334.052 928.158 335.513 919.507 339.752 909.424L342.234 903.518C347.401 891.227 354.076 883.411 362.26 880.071ZM355.526 894.275C352.775 897.864 350.057 902.852 347.372 909.238C345.193 914.423 343.656 919.088 342.761 923.232C341.935 927.348 341.855 931.099 342.522 934.487C343.204 938.107 344.802 941.293 347.318 944.045C349.901 946.77 353.57 949.131 358.323 951.129C367.926 955.166 375.932 954.802 382.341 950.038C385.056 948.016 387.468 945.301 389.578 941.894C391.736 938.507 393.804 934.461 395.782 929.756C397.962 924.57 399.465 919.92 400.291 915.804C401.185 911.66 401.299 907.894 400.633 904.507C399.951 900.887 398.318 897.714 395.735 894.99C393.219 892.238 389.585 889.863 384.831 887.864C378.158 885.059 372.322 884.358 367.326 885.76C362.835 887.036 358.902 889.875 355.526 894.275Z" fill="black"/>
<path d="M423.572 973.493L416.798 1006.8L409.987 1004.61L431.152 900.571L438.43 900.458L436.172 911.558C439.173 909.086 442.483 907.182 446.104 905.845C451.964 903.689 457.777 903.198 463.545 904.371C468.546 905.388 472.692 907.348 475.982 910.249C479.333 913.11 481.87 916.709 483.592 921.046C485.202 925.147 486.101 929.741 486.289 934.829C486.476 939.916 486.015 945.19 484.904 950.651C483.533 957.388 481.215 963.428 477.949 968.769C474.283 974.773 469.866 979.11 464.699 981.78C458.642 984.906 451.989 985.732 444.742 984.257C440.965 983.489 437.246 982.174 433.586 980.313C429.925 978.453 426.587 976.179 423.572 973.493ZM435.392 920.488C434.489 921.527 434.028 922.098 434.007 922.2L425.021 966.373C428.31 969.54 432.57 972.373 437.802 974.873C440.412 976.148 443.3 977.107 446.464 977.751C452.385 978.956 457.745 978.079 462.545 975.123C466.547 972.695 469.982 968.876 472.849 963.666C475.222 959.312 476.944 954.507 478.014 949.25C479.083 943.993 479.456 939.152 479.134 934.728C478.822 930.253 477.895 926.318 476.354 922.922C474.894 919.648 472.962 916.996 470.558 914.966C468.205 912.946 465.574 911.64 462.665 911.048C457.816 910.062 452.994 910.383 448.198 912.012C444.649 913.256 441.339 915.161 438.266 917.725C437.242 918.579 436.283 919.5 435.392 920.488Z" fill="black"/>
<path d="M563.237 946.915L562.521 949.646L505.48 951.57C505.422 964.279 507.828 973.378 512.698 978.87C514.926 981.38 517.678 983.19 520.955 984.298C524.231 985.407 528.03 985.972 532.353 985.992C537.093 986.014 542.201 985.204 547.677 983.562C551.745 982.331 555.554 980.942 559.103 979.396L561.185 985.343C558.208 987.101 554.294 988.671 549.444 990.055C543.498 991.85 537.817 992.736 532.4 992.711C526.098 992.682 520.764 991.85 516.396 990.215C512.081 988.58 508.603 986.064 505.962 982.667C503.321 979.269 501.389 974.859 500.164 969.437C498.939 963.962 498.345 957.293 498.381 949.428C498.442 936.199 501.43 926.369 507.345 919.938C513.051 913.766 521.372 910.706 532.31 910.756C541.633 910.799 548.941 912.76 554.236 916.639C560.776 921.513 564.022 929.08 563.975 939.34C563.964 941.684 563.718 944.209 563.237 946.915ZM513.421 923.794C509.286 928.15 506.754 935.17 505.824 944.853L556.535 943.212C556.644 942.223 556.702 940.843 556.711 939.072C556.737 933.395 555.612 928.911 553.335 925.619C550.955 922.223 547.476 919.889 542.899 918.618C539.985 917.823 536.159 917.415 531.42 917.393C523.555 917.357 517.556 919.49 513.421 923.794Z" fill="black"/>
<path d="M621.525 902.041C622.921 902.172 624.082 902.317 625.008 902.475L624.782 909.489C622.964 909.06 621.229 908.803 619.576 908.716C617.915 908.577 615.852 908.719 613.388 909.141C610.667 909.607 607.927 910.736 605.17 912.529C602.403 914.271 599.947 916.436 597.8 919.022C595.611 921.669 593.975 924.459 592.892 927.392C591.8 930.274 591.474 932.999 591.913 935.565L600.509 985.772L593.501 986.972L580.45 910.737L587.194 907.998L589.501 921.473C590.28 919.543 591.445 917.548 592.994 915.486C594.586 913.364 596.422 911.438 598.504 909.707C600.722 907.848 603.096 906.279 605.625 905.001C608.196 903.662 610.791 902.769 613.409 902.321C615.924 901.89 618.63 901.797 621.525 902.041Z" fill="black"/>
<path d="M681.423 881.719L688.626 880.67L705.68 925.839C707.409 930.419 708.953 934.067 710.313 936.783C711.672 939.498 713.015 941.58 714.341 943.028C715.685 944.525 717.056 945.427 718.453 945.735C719.898 946.024 721.571 945.81 723.471 945.092C725.81 944.209 727.907 942.833 729.762 940.963C731.666 939.076 733.234 937.036 734.467 934.845L738.736 938.41C737.091 941.871 735.263 944.621 733.25 946.661C731.236 948.702 728.646 950.32 725.479 951.516C720.704 953.319 716.519 953.145 712.923 950.995C709.871 949.253 707.164 946.211 704.801 941.87C703.918 944.987 703.113 947.573 702.386 949.629C701.641 951.637 700.679 953.586 699.501 955.479C696.452 960.527 692.029 964.146 686.23 966.335C681.455 968.138 676.887 968.721 672.527 968.085C668.198 967.381 664.14 965.628 660.354 962.827C656.825 960.262 653.626 956.877 650.758 952.671C647.89 948.465 645.471 943.756 643.503 938.542C641.074 932.11 639.819 925.764 639.738 919.504C639.643 912.469 641.087 906.413 644.068 901.334C647.451 895.548 652.626 891.339 659.594 888.708C663.199 887.347 667.047 886.479 671.137 886.104C675.226 885.729 679.262 885.875 683.244 886.543L681.423 881.719ZM695.601 949.352C698.413 944.56 700.181 939.216 700.905 933.32L685.81 893.34C681.785 892.411 677.733 892.075 673.656 892.334C670.005 892.544 665.987 893.476 661.601 895.132C655.998 897.248 651.919 900.82 649.364 905.849C647.24 910.102 646.376 915.188 646.774 921.106C647.083 926.056 648.186 931.04 650.081 936.058C651.773 940.541 653.76 944.551 656.042 948.087C658.372 951.606 660.933 954.48 663.724 956.711C666.667 959.051 669.777 960.578 673.052 961.29C676.357 961.934 679.788 961.585 683.345 960.242C688.364 958.347 692.449 954.717 695.601 949.352Z" fill="black"/>
<path d="M743.163 849.443L745.507 855.863L727.821 866.321L749.414 902.836C751.879 907.006 754.015 910.311 755.822 912.752C757.628 915.193 759.31 917.013 760.865 918.211C762.447 919.454 763.952 920.106 765.381 920.169C766.855 920.205 768.466 919.706 770.214 918.673C772.366 917.4 774.195 915.683 775.7 913.522C777.251 911.335 778.444 909.056 779.281 906.685L784.101 909.463C783.471 911.468 782.88 913.18 782.326 914.596C781.79 915.942 781.13 917.179 780.346 918.309C778.696 920.737 776.414 922.812 773.5 924.535C769.196 927.08 765.056 927.652 761.082 926.251C757.775 925.06 754.602 922.61 751.562 918.902C749.523 916.477 747.138 912.956 744.408 908.338L721.701 869.94L712.892 875.149L709.472 869.366L718.282 864.156L708.738 848.017L714.698 844.129L724.401 860.538L743.163 849.443Z" fill="black"/>
<path d="M745.086 825.989C743.461 825.923 742.125 825.208 741.079 823.844C740.065 822.521 739.722 821.045 740.049 819.417C740.417 817.756 741.386 816.324 742.957 815.12C744.486 813.948 746.038 813.447 747.613 813.618C749.229 813.758 750.544 814.489 751.558 815.811C752.572 817.134 752.937 818.594 752.651 820.191C752.334 821.746 751.432 823.094 749.943 824.235C748.331 825.471 746.712 826.056 745.086 825.989ZM756.929 839.256L762.103 833.421L792.853 873.538C795.831 877.424 798.363 880.47 800.449 882.678C802.535 884.885 804.422 886.491 806.109 887.494C807.829 888.538 809.401 889.006 810.827 888.898C812.295 888.757 813.835 888.069 815.447 886.833C817.431 885.313 819.036 883.426 820.263 881.173C821.499 878.848 822.395 876.422 822.952 873.895L828.069 876.076C827.494 879.863 826.538 883.024 825.199 885.559C823.861 888.094 821.849 890.392 819.162 892.451C814.987 895.651 810.716 896.628 806.348 895.382C802.942 894.449 799.344 892.023 795.553 888.104C793.562 886.021 791.268 883.285 788.669 879.895L761.389 844.304L754.692 849.437L750.605 844.104L756.929 839.256Z" fill="black"/>
<path d="M832.079 784.53C828.97 782.741 825.864 781.099 822.763 779.604L826.784 773.409C833.296 776.905 838.768 780.136 843.202 783.103C847.976 786.392 852.011 789.591 855.306 792.701C861.404 798.457 865.9 804.203 868.792 809.941C871.684 815.679 873.173 821.273 873.256 826.723C873.292 831.77 872.253 836.626 870.141 841.293C868.064 845.922 865.149 850.225 861.395 854.202L857.042 858.472L790.242 822.713L786.381 826.803L781.495 822.192L789.216 814.01L856.187 849.931C860.052 845.987 862.788 841.837 864.393 837.48C865.999 833.123 866.515 828.668 865.941 824.116C865.372 819.711 863.77 815.3 861.137 810.881C858.466 806.426 854.896 802.09 850.426 797.871C845.351 793.081 839.235 788.634 832.079 784.53Z" fill="black"/>
<path d="M900.131 725.432L902.073 727.481L873.612 776.951C884.376 783.706 893.376 786.463 900.61 785.223C903.918 784.655 906.907 783.272 909.578 781.074C912.248 778.876 914.733 775.946 917.03 772.284C919.55 768.27 921.557 763.503 923.052 757.985C924.153 753.88 924.982 749.912 925.542 746.081L931.692 747.451C931.614 750.907 930.883 755.06 929.5 759.91C927.888 765.908 925.642 771.201 922.763 775.789C919.413 781.128 915.892 785.22 912.199 788.068C908.533 790.871 904.561 792.498 900.281 792.949C896.002 793.399 891.236 792.714 885.983 790.894C880.687 789.046 874.708 786.032 868.046 781.851C856.841 774.82 850.067 767.095 847.725 758.677C845.492 750.574 847.283 741.89 853.097 732.625C858.052 724.728 863.574 719.554 869.663 717.103C877.254 714.119 885.395 715.354 894.086 720.808C896.071 722.054 898.086 723.595 900.131 725.432ZM854.206 755.55C855.725 761.36 860.352 767.215 868.087 773.115L893.449 729.171C892.666 728.557 891.525 727.779 890.025 726.838C885.216 723.82 880.813 722.41 876.816 722.607C872.675 722.837 868.857 724.56 865.362 727.778C863.15 729.833 860.784 732.868 858.265 736.883C854.084 743.545 852.732 749.767 854.206 755.55Z" fill="black"/>
<path d="M424.339 328.987C422.384 328.963 420.423 328.999 418.454 329.111C369.729 331.73 287.023 362.973 297.863 484.879C307.128 589.069 475.031 731.736 523.758 771.107C525.462 760.516 528.513 739.084 529.407 715.982C530.771 680.864 527.765 642.589 526.408 640.348C521.025 631.449 482.75 630.085 453.55 611.956C427.281 595.648 417.487 567.842 425.94 560.947C447.392 543.449 478.426 551.313 503.94 568.88C530.838 587.401 541.88 615.033 541.88 615.033C543.203 614.741 561.04 580.399 587.619 564.842C609.66 551.941 638.184 552.724 648.772 570.718C655.937 582.897 644.861 600.11 623.726 612.504C601.639 625.455 571.893 629.97 551.795 638.774C549.563 639.753 545.624 674.991 544.336 708.754C543.124 740.566 542.717 758.181 544.49 771.043C544.656 772.243 545.246 773.619 546.015 774.995C587.478 741.975 767.636 592.736 777.226 484.879C788.066 362.973 705.359 331.73 656.634 329.111C593.63 325.725 537.546 390.068 537.546 390.068C537.546 390.068 484.909 329.682 424.339 328.987Z" fill="#49B952"/>
<path d="M135.002 551.988C146.601 551.988 156.004 542.591 156.004 531.001C156.004 519.41 146.601 510.014 135.002 510.014C123.403 510.014 114 519.41 114 531.001C114 542.591 123.403 551.988 135.002 551.988Z" fill="#49B952"/>
<path d="M137.877 484.822C144.573 484.822 150.001 479.397 150.001 472.706C150.001 466.014 144.573 460.59 137.877 460.59C131.181 460.59 125.753 466.014 125.753 472.706C125.753 479.397 131.181 484.822 137.877 484.822Z" fill="#49B952"/>
<path d="M137.877 600.754C144.573 600.754 150.001 595.33 150.001 588.638C150.001 581.947 144.573 576.522 137.877 576.522C131.181 576.522 125.753 581.947 125.753 588.638C125.753 595.33 131.181 600.754 137.877 600.754Z" fill="#49B952"/>
<path d="M939.986 551.988C951.585 551.988 960.988 542.591 960.988 531.001C960.988 519.41 951.585 510.014 939.986 510.014C928.387 510.014 918.984 519.41 918.984 531.001C918.984 542.591 928.387 551.988 939.986 551.988Z" fill="#49B952"/>
<path d="M933.034 461.246C926.338 461.246 920.908 466.671 920.908 473.362C920.908 480.054 926.338 485.479 933.034 485.479C939.73 485.479 945.158 480.054 945.158 473.362C945.158 466.671 939.73 461.246 933.034 461.246Z" fill="#49B952"/>
<path d="M933.034 577.178C926.338 577.178 920.908 582.603 920.908 589.295C920.908 595.986 926.338 601.411 933.034 601.411C939.73 601.411 945.158 595.986 945.158 589.295C945.158 582.603 939.73 577.178 933.034 577.178Z" fill="#49B952"/>
</svg>
